<svg width="84" height="89" viewBox="0 0 84 89" fill="none" xmlns="http://www.w3.org/2000/svg">
<path d="M71.1848 45.5204C71.1848 45.5204 77.4046 45.4821 77.5501 46.7077C77.6497 47.5196 76.1484 63.5286 76.1484 63.5286C76.1484 63.5286 80.8821 65.9338 81.8626 66.5466C83.0115 67.2666 83.586 68.27 83.1571 69.1356C82.7281 70.0011 81.8626 70.2156 80.6753 69.6717C79.488 69.1356 71.9431 66.761 71.6138 66.0027C71.2844 65.2444 71.721 52.5215 71.721 52.5215L71.1848 45.5204V45.5204Z" fill="#696E72"/>
<path d="M62.1999 28.3011C62.1999 28.3011 64.6051 25.7198 65.4706 25.9266C66.6579 26.2177 70.0359 31.2119 70.9014 32.7208L73.8121 37.7916C73.8121 37.7916 79.4191 36.7116 80.8208 36.4971C82.2226 36.2826 83.7316 36.8188 83.8388 38.2206C83.946 39.6223 81.7936 40.2657 79.9553 40.5951C78.1246 40.9168 72.6249 42.2113 72.081 41.7824C71.5448 41.3458 62.1999 28.3011 62.1999 28.3011V28.3011Z" fill="#696E72"/>
<path d="M16.5093 61.6903L18.0183 66.4317L16.1876 68.8062C16.1876 68.8062 23.1963 77.975 23.0891 79.0474C22.9818 80.1274 15.6514 87.6723 15.0003 88.2161C14.3569 88.7523 12.7177 89.4953 12.0896 88.5378C11.2624 87.2816 12.3041 85.8416 13.1696 84.8688L18.3477 79.0474C18.3477 79.0474 11.3772 70.8284 11.0172 68.4769C10.7951 67.0828 16.5093 61.6903 16.5093 61.6903V61.6903Z" fill="#696E72"/>
<path d="M15.0002 41.0931C15.0002 41.0931 10.075 39.2931 8.74219 40.1203C7.21789 41.0625 7.91493 59.5685 7.91493 59.5685C7.91493 59.5685 1.73348 63.4137 0.975162 63.8427C0.216843 64.2716 -0.319342 65.2444 0.216843 66.11C0.753029 66.9755 2.04753 66.7534 3.66375 66.11C5.27996 65.4666 10.2895 63.4137 11.1014 62.6631C12.4648 61.4069 11.9287 46.5622 11.9287 46.5622L14.3338 46.0567L15.0002 41.0931V41.0931Z" fill="#696E72"/>
<path d="M34.9539 33.8699L54.2566 21.2542C54.2566 21.2542 58.3545 11.5492 58.3545 10.6837C58.3545 9.81813 52.5331 3.4605 52.5331 3.4605C52.5331 3.4605 54.7927 0.97873 53.4982 0.120834C52.2037 -0.744722 48.3968 3.28433 48.5347 4.4333C48.6189 5.07672 54.0344 11.5492 54.0344 11.5492L49.8292 19.9597C49.8292 19.9597 44.7584 19.638 44.0077 19.0941C43.2571 18.5503 43.5405 16.3289 41.8477 15.3179C40.5149 14.5212 39.0442 14.3451 39.0442 14.3451C39.0442 14.3451 38.7225 12.2999 39.8025 10.676C40.8826 9.05215 45.3176 4.34138 44.2605 2.26557C43.035 -0.139599 41.1506 0.764256 40.7753 1.90556C40.4153 2.98559 41.6409 4.2035 41.6409 4.2035C41.6409 4.2035 37.9718 8.40873 37.1139 10.3467C36.256 12.2846 36.5778 14.8736 36.5778 14.8736C36.5778 14.8736 31.3997 13.7629 28.489 14.6208C25.5783 15.4864 22.7748 19.615 22.7748 19.615C22.7748 19.615 20.4003 17.026 18.8913 16.2753C17.3823 15.5247 16.3023 15.9536 14.035 14.8736C11.7677 13.7936 11.2315 12.9357 11.2315 12.9357C11.2315 12.9357 11.4536 11.8939 11.017 11.105C10.5804 10.3084 9.21699 9.956 8.25186 10.5688C7.48588 11.0514 7.40928 12.4148 7.79227 13.2267C8.22122 14.1306 9.40848 14.2378 9.40848 14.2378C9.40848 14.2378 10.9864 16.1758 13.2537 16.9341C15.6589 17.7383 16.2027 17.5775 17.8189 18.2286C19.4351 18.8797 20.1935 20.6031 20.1935 20.6031C20.1935 20.6031 19.1134 22.0048 19.0062 23.5138C18.9066 24.9462 19.3279 29.3353 19.3279 29.3353L15.3372 33.8622C15.3372 33.8622 8.94124 30.3387 8.65016 29.7259C8.35909 29.1131 9.58466 20.4193 8.54293 19.4082C7.27906 18.1903 2.28488 14.9885 1.85593 17.0336C1.42698 19.0788 5.52497 20.9172 5.52497 20.9172C5.52497 20.9172 4.4143 30.2238 4.98879 31.5949C5.56327 32.9583 14.9082 39.0326 14.9082 39.0326L34.9539 33.8699V33.8699Z" fill="#696E72"/>
<path d="M35.2757 29.0213L14.1347 36.7806C14.1347 36.7806 10.1439 46.5928 14.7781 61.583C18.922 74.9723 34.8084 88.6144 54.6779 82.8236C75.2751 76.8183 75.3823 44.7545 68.9098 34.2988C62.6977 24.2492 54.249 21.2542 54.249 21.2542L35.2757 29.0213Z" fill="#FE1D1E"/>
<path d="M39.7016 16.4741C39.8033 15.3365 38.7142 14.3094 37.269 14.1801C35.8237 14.0508 34.5696 14.8683 34.4678 16.0059C34.3661 17.1436 35.4552 18.1707 36.9004 18.3C38.3457 18.4292 39.5998 17.6118 39.7016 16.4741Z" fill="#2F2F2F"/>
<path d="M24.0096 22.7156C25.1779 21.8552 25.576 20.4121 24.8987 19.4924C24.2213 18.5727 22.7251 18.5246 21.5567 19.3851C20.3884 20.2455 19.9903 21.6886 20.6676 22.6083C21.345 23.528 22.8412 23.5761 24.0096 22.7156Z" fill="#2F2F2F"/>
<path d="M37.1062 37.0717C37.1062 37.0717 45.4477 57.5999 46.2367 59.9362C47.018 62.2418 53.1764 80.4644 53.4981 81.4296C53.8199 82.3947 54.0037 83.153 55.0761 82.793C56.2633 82.3947 55.7578 81.3223 55.4361 80.4568C55.1144 79.5912 49.8904 61.5064 49.1091 59.1089C47.4163 53.9309 40.5531 35.0648 40.5531 35.0648L37.1062 37.0717V37.0717Z" fill="#D62F34"/>
<path d="M32.0357 20.2814C25.6704 22.4414 22.0091 27.1828 21.1435 28.7991C20.2779 30.4153 17.6966 29.9863 17.6966 29.9863C17.6966 29.9863 16.0804 31.3191 15.0386 33.2187C14.2267 34.6971 14.0352 36.8878 14.0352 36.8878C14.0352 36.8878 22.4457 35.9916 26.9726 36.4205C31.4995 36.8495 39.5883 38.2895 39.5883 38.2895C39.5883 38.2895 44.1535 31.7481 47.4625 28.3701C49.546 26.2407 55.084 21.5376 55.084 21.5376C55.084 21.5376 52.8933 19.9214 51.2771 19.5996C49.9979 19.3469 47.2174 18.9869 45.8846 19.7452C45.7697 19.7452 38.6308 18.0524 32.0357 20.2814V20.2814Z" fill="#2F2F2F"/>
<path d="M21.9399 31.3881C23.6404 29.6341 21.4344 26.2101 19.7109 26.2867C17.9875 26.3557 18.0564 27.5123 17.6275 28.5157C17.1985 29.5192 16.4708 29.9251 16.624 31.0281C16.7619 32.1082 19.3509 34.0538 21.9399 31.3881Z" fill="#FFEBC1"/>
<path d="M42.6443 22.2577C45.6623 24.1267 47.7457 21.2543 47.8913 19.8142C48.0368 18.3742 45.6623 18.1597 44.9422 17.7308C44.2222 17.3018 43.0733 15.7162 41.9932 17.3707C40.9209 19.0253 40.9285 21.2006 42.6443 22.2577Z" fill="#FFEBC1"/>
<path d="M33.445 59.4766C37.4977 59.4766 40.783 56.2804 40.783 52.3377C40.783 48.3949 37.4977 45.1987 33.445 45.1987C29.3922 45.1987 26.1069 48.3949 26.1069 52.3377C26.1069 56.2804 29.3922 59.4766 33.445 59.4766Z" fill="#2F2F2F"/>
<path d="M53.621 52.9964C57.293 52.9964 60.2697 49.9956 60.2697 46.294C60.2697 42.5924 57.293 39.5917 53.621 39.5917C49.949 39.5917 46.9723 42.5924 46.9723 46.294C46.9723 49.9956 49.949 52.9964 53.621 52.9964Z" fill="#2F2F2F"/>
<path d="M64.2199 39.7876C66.4033 38.2965 66.8215 35.1081 65.1538 32.6662C63.4862 30.2243 60.3643 29.4535 58.1808 30.9446C55.9974 32.4357 55.5793 35.624 57.247 38.0659C58.9146 40.5079 62.0365 41.2787 64.2199 39.7876Z" fill="#2F2F2F"/>
<path d="M18.7152 53.6551C21.4184 53.6551 23.6098 51.1893 23.6098 48.1477C23.6098 45.106 21.4184 42.6403 18.7152 42.6403C16.0119 42.6403 13.8206 45.106 13.8206 48.1477C13.8206 51.1893 16.0119 53.6551 18.7152 53.6551Z" fill="#2F2F2F"/>
<path d="M37.6895 74.919C41.0189 74.5838 43.4317 71.4697 43.0786 67.9635C42.7256 64.4573 39.7404 61.8868 36.411 62.222C33.0816 62.5573 30.6688 65.6714 31.0218 69.1776C31.3749 72.6838 34.3601 75.2543 37.6895 74.919Z" fill="#2F2F2F"/>
<path d="M65.2027 61.0521C65.3452 57.6623 62.884 54.8061 59.7056 54.6725C56.5271 54.5388 53.835 57.1785 53.6925 60.5683C53.55 63.958 56.0111 66.8143 59.1896 66.9479C62.368 67.0815 65.0602 64.4419 65.2027 61.0521Z" fill="#2F2F2F"/>
</svg>
