<svg width="85" height="85" viewBox="0 0 85 85" fill="none" xmlns="http://www.w3.org/2000/svg">
<path d="M42.4514 84.2188C65.492 84.2188 84.1701 65.5406 84.1701 42.5C84.1701 19.4594 65.492 0.78125 42.4514 0.78125C19.4107 0.78125 0.732605 19.4594 0.732605 42.5C0.732605 65.5406 19.4107 84.2188 42.4514 84.2188Z" fill="#575757"/>
<path d="M39.7396 80.8812C61.2826 80.8812 78.7467 63.4172 78.7467 41.8742C78.7467 20.3312 61.2826 2.86719 39.7396 2.86719C18.1966 2.86719 0.732605 20.3312 0.732605 41.8742C0.732605 63.4172 18.1966 80.8812 39.7396 80.8812Z" fill="#424242"/>
<path d="M14.6388 18.6508C17.7677 13.7141 24.4427 9.61171 31.3959 8.36015C33.1341 8.08202 34.8724 7.94296 36.3326 8.49921C37.4451 8.9164 38.349 9.95937 37.7232 11.1414C37.2365 12.1148 35.9154 12.532 34.8724 12.8797C28.3499 15.032 22.7255 19.287 18.8802 24.9781C17.4896 27.0641 15.4037 32.8352 12.831 31.375C10.1193 29.7758 10.6755 24.7695 14.6388 18.6508V18.6508Z" fill="#787878"/>
</svg>
