<svg width="77" height="89" viewBox="0 0 77 89" fill="none" xmlns="http://www.w3.org/2000/svg">
<path d="M67.2155 37.2502C67.2155 37.2502 69.83 36.7572 72.1233 35.0391C74.1775 33.5003 77.1805 30.6468 76.1571 29.5711C75.0515 28.4133 73.2662 31.461 72.8479 30.729C72.5715 30.2434 74.5809 28.5701 75.4773 25.993C76.2766 23.6997 75.3653 21.4288 73.3185 23.9387C72.6836 24.7156 72.2055 25.5597 71.8992 25.2535C71.5705 24.9248 72.3549 23.0125 72.9301 21.2272C73.8937 18.2093 72.4221 16.2073 69.9047 19.8601C68.8291 21.4139 68.3435 23.4607 67.5367 23.3113C66.9616 23.2067 67.2529 22.0414 67.1558 20.8835C66.9541 18.4707 64.6459 18.7396 63.854 22.9975C63.503 24.88 63.8092 27.0537 63.3834 27.2031C62.6439 27.4646 62.8082 24.26 61.5981 24.5737C60.7167 24.8053 60.388 26.994 60.4403 29.3097C60.4926 31.6254 61.9641 35.3529 61.9641 35.3529L64.0184 39.0879L67.2155 37.2502V37.2502Z" fill="#BDCE44"/>
<path d="M61.486 35.5844C61.486 35.5844 59.8352 39.4389 62.0986 44.399C63.7495 48.0219 66.11 50.5767 64.7131 52.0258C62.6439 54.1623 55.3532 49.5383 48.1671 51.6598C42.5721 53.3107 39.9053 56.4929 38.2768 62.3344C37.0592 66.7044 35.8566 68.4 33.8247 68.9976C32.2411 69.4608 29.7611 69.1172 28.4463 67.9145C25.6675 65.3598 25.7347 62.4091 26.7805 59.9291C27.7591 57.6059 30.9936 55.335 32.4951 54.5582C36.6484 52.3993 46.8524 49.247 49.7432 43.7267C52.3204 38.804 53.0002 33.1567 51.424 29.474C49.8478 25.7913 47.323 27.106 47.323 27.106L47.8982 35.8309L37.8585 46.3487L23.3966 56.2314L21.4022 66.7492L26.4519 75.2649L36.865 74.4731L47.4873 58.4874L57.7436 57.7479L67.4695 57.225L71.1522 46.9164L61.486 35.5844V35.5844Z" fill="#6D8038"/>
<path d="M69.0531 26.5757C67.32 25.4029 61.4113 30.7813 61.359 36.832C61.3067 42.8752 64.952 47.1405 65.6916 48.3507C66.4311 49.5608 68.7617 53.8037 65.7439 55.7086C63.3236 57.2474 52.0215 52.2873 46.18 56.0223C40.3459 59.7573 42.3255 66.174 36.962 71.3582C34.9526 73.3078 24.151 75.1081 23.2546 64.3812C22.3582 53.6543 35.3485 53.1314 41.7652 48.4478C48.1819 43.7716 50.2287 39.8274 50.0196 34.3071C49.8104 28.7868 48.1819 27.0538 48.1819 27.0538L37.8734 31.2594L33.1374 38.9385C33.1374 38.9385 26.9597 41.2019 21.4992 44.8771C15.0675 49.2097 13.9246 52.3471 13.9246 52.3471C13.9246 52.3471 12.4157 51.8765 12.4157 51.503C12.4157 51.1295 17.7119 45.1012 17.2562 42.4568C16.696 39.2149 14.9107 38.3409 13.8574 38.2363C12.8041 38.1317 12.2065 39.0431 12.9834 40.2308C13.7528 41.426 14.1413 42.4718 13.9993 42.9275C13.8574 43.3831 13.3943 43.8612 13.2972 43.0694C13.1926 42.1954 12.5576 40.7014 12.102 40.0889C11.7285 39.5884 10.5631 38.1243 9.12144 38.3708C7.67973 38.6173 7.58262 39.9843 8.77035 41.1048C9.96555 42.2253 11.1159 43.8014 10.5258 44.5036C9.9282 45.2058 8.94963 42.9424 8.31468 42.1058C7.6872 41.2617 6.12598 40.9404 5.19223 40.7537C4.21367 40.5595 2.60015 41.6426 3.54137 43.2038C4.24354 44.3617 5.19223 43.8014 6.34261 45.0265C7.49298 46.2516 7.5378 46.7073 7.50045 47.021C7.46311 47.3347 5.28934 48.9483 5.0503 50.4198C4.80379 51.8914 5.22211 52.8028 4.66186 53.3257C4.10162 53.8486 1.71869 53.744 0.949286 53.9905C0.179879 54.237 -0.664229 56.2016 0.807356 56.8291C2.27894 57.4566 4.9756 57.5686 6.23803 57.1802C7.15684 56.8963 7.43323 56.478 7.81419 56.5527C8.20263 56.6199 11.2504 58.8684 11.2504 58.8684C11.2504 58.8684 10.8171 62.1104 10.8844 64.8593C10.974 68.4374 12.0422 71.2387 12.0422 71.2387C12.0422 71.2387 13.1104 72.7625 12.6547 72.7476C11.355 72.6953 7.81419 69.1695 6.06622 68.7885C4.31078 68.4001 2.91389 68.5121 2.24159 69.2815C1.62905 69.9837 1.40495 71.53 2.63003 71.6271C3.96716 71.7317 4.59463 71.4553 4.59463 71.9408C4.59463 72.2621 4.16138 72.5235 3.29486 72.8148C2.04737 73.2331 1.69628 74.2267 1.99508 75.4443C2.27894 76.5872 3.85511 76.251 4.31078 75.8999C4.76644 75.5488 4.93825 75.1978 5.18476 75.5115C5.43127 75.8252 4.3556 76.632 4.02692 77.3715C3.36209 78.858 4.29583 79.5005 5.28934 79.5826C6.65635 79.6872 6.86551 77.9318 7.50045 77.2669C8.12793 76.6021 8.93469 76.0717 9.21855 76.1091C9.50241 76.1464 9.39036 77.2669 10.6528 78.6339C11.9152 80.0009 13.6333 79.2315 13.9097 79.478C14.1861 79.7246 13.7005 81.5472 14.7837 82.5258C15.8668 83.5044 17.6223 83.086 17.6223 81.5771C17.6223 80.0682 17.7642 79.4407 17.7642 79.4407C17.7642 79.4407 19.8857 81.3007 22.657 82.2793C25.4284 83.2579 29.2157 84.087 29.2157 84.087C29.2157 84.087 28.8347 84.7668 28.9169 86.1039C28.9542 86.6492 29.0737 88.315 30.6873 88.2777C31.8451 88.2553 31.8974 86.0367 32.3157 85.962C32.734 85.8948 31.9123 88.8529 34.0488 88.9948C36.1852 89.1367 35.5054 86.3504 35.8864 86.2757C36.2748 86.2085 36.2823 89.8912 39.076 88.6213C40.5476 87.9565 38.583 84.707 38.725 84.4157C38.8146 84.2439 40.1965 84.0273 41.1079 83.4371C41.7129 83.0412 42.0864 82.1747 42.0864 82.1747C42.0864 82.1747 46.5012 80.9272 48.3239 77.633C50.8114 73.136 50.3931 67.8025 52.3577 66.0844C54.3223 64.3663 58.1095 65.7333 59.9322 65.9425C61.7549 66.1516 61.9267 66.0844 62.0387 66.1516C62.1433 66.2188 62.3525 67.063 62.1807 67.3095C62.0089 67.556 57.0264 69.3413 55.8387 71.3432C54.6435 73.3377 54.8153 74.7645 54.9273 75.3023C55.1738 76.4602 56.3093 76.617 56.8172 75.6534C57.3177 74.7047 57.5866 73.8681 58.0124 74.0026C58.4307 74.1445 57.6091 75.7132 57.9452 76.4527C58.4382 77.5359 59.6633 77.364 60.1563 76.9756C60.6493 76.5872 60.7689 75.0484 61.1199 75.2202C61.471 75.392 61.1199 76.0643 61.7698 77.1997C62.345 78.2082 64.2424 77.2893 63.9585 75.7953C63.7867 74.884 63.0323 74.1968 64.1154 73.3228C65.1985 72.4488 66.08 72.4787 67.2005 71.784C68.321 71.0818 68.2164 70.0659 69.4788 70.5215C70.7413 70.9772 70.7786 72.1201 71.7198 71.4702C73.1391 70.4917 72.4594 68.5271 71.2642 67.5784C70.069 66.6297 68.321 66.5251 68.0745 66.4205C67.828 66.316 67.7234 64.9863 67.7234 64.9863C67.7234 64.9863 74.8049 62.2149 75.6117 55.238C76.4185 48.261 68.3882 40.7238 67.8653 36.2045C67.3574 31.715 70.5695 27.5991 69.0531 26.5757Z" fill="#00AA48"/>
<path d="M20.5355 81.353C21.4917 81.8684 22.5076 82.3166 23.5011 82.6453C26.3546 83.5865 29.253 84.1169 29.253 84.1169C29.253 84.1169 29.8506 82.8918 31.8451 81.9804C32.973 81.465 35.4232 81.0691 35.4232 81.0691C35.4232 81.0691 31.8152 80.9645 28.1698 80.3669C26.6011 80.1129 24.6365 79.4406 22.8512 78.2604L20.5355 81.353V81.353Z" fill="#7BD989"/>
<path d="M28.8346 46.0872C31.113 44.8771 33.3017 43.8462 35.0048 43.1067L32.973 39.0505C31.352 39.6108 29.238 40.4773 26.6683 41.8219L28.8346 46.0872Z" fill="#7BD989"/>
<path d="M17.3234 56.6796C18.3244 54.5208 19.7512 52.5935 21.3647 51.0248L18.556 47.0209C15.9564 49.1947 14.1263 51.5178 12.9087 53.9829L17.3234 56.6796V56.6796Z" fill="#7BD989"/>
<path d="M12.4009 55.0885C11.1459 58.1064 10.7799 60.5565 10.8471 64.2019L15.8221 63.918C15.7175 61.7741 16.1134 59.705 16.8455 57.7852L12.4009 55.0885V55.0885Z" fill="#7BD989"/>
<path d="M14.2758 75.5562C15.1647 76.7813 16.1806 77.8868 17.2637 78.9999C17.8389 79.59 18.6009 80.1876 19.4674 80.7329L21.8877 77.5731C21.2677 77.0801 20.6925 76.5198 20.1696 75.8849C19.4525 75.0109 18.7503 74.0846 18.1153 72.9716L14.2758 75.5562V75.5562Z" fill="#7BD989"/>
<path d="M13.6186 74.5926C12.147 72.2695 11.1236 69.4533 10.892 65.3597L15.8894 64.9041C16.136 68.0041 16.7784 70.2302 17.6225 72.0006L13.6186 74.5926V74.5926Z" fill="#7BD989"/>
<path d="M22.2314 50.233C22.9261 49.6354 23.6506 49.0976 24.3827 48.6419C25.4957 47.9472 26.6461 47.2749 27.7965 46.6474L25.69 42.3447C24.5844 42.9498 23.2099 43.7117 21.9475 44.5035C20.954 45.131 20.0576 45.7659 19.3928 46.3486L22.2314 50.233Z" fill="#7BD989"/>
<path d="M35.9236 42.7107C36.2672 42.5688 36.581 42.4418 36.8574 42.3298C39.3822 41.3512 40.1516 39.8423 39.6586 38.6844C39.1656 37.5266 37.2383 37.8104 36.7827 37.9822C36.5959 38.0495 35.6323 38.1989 33.9515 38.7218L35.9236 42.7107V42.7107Z" fill="#7BD989"/>
<path d="M15.8966 14.6088C15.8966 14.6088 15.5828 10.6497 18.2421 8.54317C20.9089 6.43663 25.1145 7.84099 27.4228 8.25931C29.731 8.67763 32.7488 8.6104 34.9226 8.11738C37.0964 7.62436 37.9405 7.20604 39.2701 7.13881C40.5998 7.07158 42.527 6.92965 44.2153 6.78772C45.642 6.6682 48.4956 6.2947 48.9512 7.63183C49.2948 8.62534 48.3237 9.62631 46.7775 10.0148C45.2386 10.4032 44.783 10.575 45.0967 11.2772C45.4104 11.9794 47.9727 11.5237 48.5329 11.3444C49.0932 11.1726 52.3575 10.5003 52.3575 12.3977C52.3575 14.295 49.6907 14.8478 47.9727 15.2736C46.2546 15.6919 45.2088 15.4454 45.276 16.3269C45.3806 17.7312 49.7654 16.3941 51.0951 16.2223C52.4248 16.0505 54.113 15.804 54.2848 17.0664C54.4566 18.3288 53.1269 19.6958 50.6021 20.1142C48.0772 20.5325 46.4338 20.9583 46.4637 21.6231C46.4936 22.2879 49.6011 21.6082 50.4975 21.4513C51.6553 21.2421 53.2987 21.2122 53.478 22.4C53.8963 25.2012 48.9213 24.7157 48.8168 25.8362C48.7196 26.8371 52.7758 25.7689 53.2689 27.4123C53.7619 29.0632 52.2156 30.4974 49.7654 30.7066C48.0623 30.856 42.2282 29.6907 41.3169 30.6692C40.4056 31.6478 43.528 31.8719 44.5738 32.1035C45.9782 32.4172 48.3237 32.5965 47.2705 34.7329C46.5832 36.1373 44.0136 35.7488 42.1386 35.8385C40.2636 35.9281 36.932 36.1373 36.932 36.1373L29.4322 36.4883L23.1574 35.7488L19.1983 34.2772L16.1804 33.0148L15.2318 31.9989L23.9567 21.2347L15.8966 14.6088V14.6088Z" fill="url(#paint0_linear)"/>
<path d="M40.137 34.5461C40.137 36.9738 38.4787 39.6705 35.035 39.7004C31.5913 39.7303 29.8284 37.6237 29.2757 37.4669C28.7229 37.31 28.5361 39.4613 26.6238 39.5734C24.704 39.678 21.8654 37.183 21.4994 37.1008C21.1334 37.0187 21.0288 38.9907 18.9521 38.9907C17.503 38.9907 15.8222 36.7273 14.7167 35.7039C13.6111 34.6806 11.639 33.1791 11.639 33.1791H17.2116C17.2116 33.1791 19.0791 32.9699 21.4172 33.1791C23.6881 33.3808 25.5481 35.1736 29.3055 35.0989C31.4121 35.0541 32.4056 34.8598 32.4056 34.8598C32.4056 34.8598 33.1675 32.1109 36.641 31.9391C39.8755 31.7822 40.137 33.9933 40.137 34.5461V34.5461Z" fill="#BECE44"/>
<path d="M28.6405 12.0988C28.6405 12.0988 32.2709 10.7169 32.7266 9.73082C33.1822 8.75226 34.6165 5.06956 36.4765 4.40473C38.3365 3.7399 39.4197 5.59993 38.1274 7.03416C36.8351 8.4684 34.9377 9.66359 35.991 10.3284C37.0442 10.9932 39.3524 7.73634 39.95 6.96693C40.5476 6.19753 41.9146 4.19557 43.4535 4.23292C44.9923 4.27027 45.9484 6.90717 42.9978 9.34985C39.95 11.8747 38.4411 12.4723 34.9377 12.7113C31.4343 12.9579 29.7461 13.182 29.7461 13.182L28.6405 12.0988V12.0988Z" fill="#FFBA02"/>
<path d="M10.7051 12.2557C10.7051 12.2557 8.94967 6.43659 12.0348 3.91174C15.1199 1.38689 19.1537 2.96305 21.6038 4.47199C23.8523 5.85393 28.2521 5.62236 28.0877 3.06763C27.9458 0.85652 25.5181 1.47653 25.3164 2.47003C25.1446 3.34402 24.7711 3.90427 24.4424 3.79969C24.0689 3.68764 23.8373 2.93317 23.8821 2.47003C24.054 0.475551 25.7422 -0.122047 27.0718 0.0198827C28.1176 0.131932 29.8731 0.89387 29.7013 3.70258C29.5295 6.51129 26.6012 7.29564 23.7776 6.82503C21.544 6.45153 19.5346 4.89778 17.5103 4.35247C16.2702 4.02379 14.5223 4.29271 13.4541 5.06959C12.2066 5.98092 11.8779 7.42263 11.8854 8.61035C11.8928 9.36482 12.0348 10.0595 12.102 10.575C12.2589 11.7477 13.5736 15.3109 13.5736 15.3109L10.7051 12.2557V12.2557Z" fill="#7CDB8B"/>
<path d="M30.971 16.394C30.971 16.394 32.7563 16.7825 32.831 18.8442C32.9057 20.9059 32.5845 21.0852 32.7638 21.1599C32.9431 21.2346 34.3773 20.3904 35.1467 21.369C36.1178 22.609 34.3773 24.6259 33.3913 25.2982C32.4127 25.963 31.8151 26.0676 31.6732 26.3814C31.5312 26.6951 30.2091 30.7662 28.4163 31.4983C26.3471 32.3424 20.386 31.9913 19.5793 31.9913C18.7725 31.9913 17.9658 32.7831 17.2113 33.1716C16.4568 33.56 15.7248 33.814 14.8433 33.5974C13.9693 33.3882 12.6322 32.4022 12.6322 32.4022L30.971 16.394Z" fill="#7CDB8B"/>
<path d="M19.0191 25.5747L21.1555 25.6793L22.2387 21.8546C22.2387 21.8546 19.2582 20.8387 18.2049 21.0479C17.1516 21.257 14.8733 22.131 14.1412 22.5195C13.4017 22.9079 12.8116 23.8865 11.4072 23.6773C10.0029 23.4682 6.99247 22.9079 5.19968 24.9397C3.65339 26.7027 3.93725 28.1967 5.26691 28.8316C6.59656 29.4591 8.28478 27.4646 9.36792 27.2928C10.4511 27.121 12.1019 27.8904 12.1019 27.8904L19.0191 25.5747V25.5747Z" fill="#D43330"/>
<path d="M11.1309 21.1599C11.1309 21.1599 11.7957 24.2077 12.6025 24.2077C13.4093 24.2077 13.4093 23.2291 13.4093 23.2291C13.4093 23.2291 16.4944 22.4223 17.092 22.0712C17.6896 21.7201 18.4216 20.2859 18.4216 20.2859L12.9536 19.8975L11.1309 21.1599Z" fill="white"/>
<path d="M11.0561 29.4665C11.0561 29.4665 10.4286 28.0995 10.6677 27.5019C10.9142 26.9043 11.1233 25.8212 11.8255 25.8884C12.5949 25.9631 12.6995 27.1508 12.6995 27.1508C12.6995 27.1508 14.7313 25.2908 16.3075 24.6633C17.1516 24.3272 18.5858 24.2076 18.6904 24.8725C18.795 25.5373 18.302 27.4347 18.302 27.4347L11.0561 29.4665Z" fill="white"/>
<path d="M8.7481 26.9416C8.48665 27.4197 8.25508 29.1826 8.68087 30.4451C9.09919 31.7075 10.5035 33.6721 12.6773 33.8065C14.8511 33.941 18.8849 29.3171 19.1239 29.1826C19.3704 29.0407 26.2054 29.952 28.1327 27.218C30.0599 24.484 29.0515 19.6733 30.0226 18.1719C31.0759 16.5584 32.6147 17.6116 32.6147 17.6116C32.6147 17.6116 32.4429 16.4911 31.666 15.7217C30.8966 14.9523 29.806 15.0943 30.1272 14.1829C30.4409 13.2716 32.8238 14.1157 32.9658 13.4434C33.1077 12.7786 32.1515 12.1063 31.0609 11.9046C30.5455 11.8075 29.2457 12.0465 29.1785 11.7328C29.1112 11.419 30.1944 11.3817 30.2317 10.6496C30.2691 9.91009 27.4604 10.194 26.3025 10.3359C25.1447 10.4778 23.6358 11.1426 23.5312 10.8588C23.4266 10.5749 25.4211 9.52912 25.3539 9.17803C25.2866 8.82695 23.703 8.51321 21.3574 9.77563C19.0118 11.0381 15.9566 14.1232 15.9566 14.1232L13.6409 13.9513C13.6409 13.9513 10.4139 10.1342 8.34472 10.6197C6.16349 11.1352 5.4389 13.2492 5.46878 16.2297C5.49866 19.2102 6.76855 20.8536 9.98811 21.4512C11.8108 21.7874 16.5468 21.2869 17.5253 21.242C20.0875 21.1225 20.5731 22.258 20.715 23.2365C20.8569 24.2151 18.9596 25.3057 18.0482 25.5149C17.1369 25.724 15.9118 25.9332 14.9258 26.598C13.9472 27.2628 12.8192 29.1229 12.1544 29.0855C11.4896 29.0482 11.3476 27.8903 10.9966 27.1956C10.6754 26.486 9.37558 25.7913 8.7481 26.9416V26.9416Z" fill="#02AB47"/>
<path d="M26.4892 14.1158C26.4593 14.4071 25.675 17.0589 23.6506 18.2168C21.6263 19.3746 19.572 19.031 19.0267 17.3503C18.4142 15.4753 19.445 13.5406 21.8952 13.8767C24.1063 14.1905 26.6461 12.7189 26.4892 14.1158V14.1158Z" fill="#79DA89"/>
<path d="M22.389 17.0851C22.9664 16.3636 22.928 15.3733 22.3032 14.8731C21.6784 14.373 20.7037 14.5524 20.1262 15.2739C19.5487 15.9953 19.5871 16.9856 20.2119 17.4858C20.8368 17.9859 21.8115 17.8065 22.389 17.0851Z" fill="#2F2E2F"/>
<path d="M8.65835 12.801C8.19521 13.2193 8.97209 14.2801 9.02438 14.8851C9.07667 15.4902 8.79281 16.5883 9.58462 16.536C10.3764 16.4837 10.6155 15.5574 10.4511 14.4817C10.227 13.0326 9.47257 12.0615 8.65835 12.801Z" fill="#2F2E2F"/>
<defs>
<linearGradient id="paint0_linear" x1="56.3928" y1="21.0636" x2="25.2647" y2="21.9047" gradientUnits="userSpaceOnUse">
<stop stop-color="#01AB46"/>
<stop offset="0.396" stop-color="#128A3C"/>
<stop offset="1" stop-color="#2F502A"/>
</linearGradient>
</defs>
</svg>
<svg width="77" height="89" viewBox="0 0 77 89" fill="none" xmlns="http://www.w3.org/2000/svg">
<path d="M67.2155 37.2502C67.2155 37.2502 69.83 36.7572 72.1233 35.0391C74.1775 33.5003 77.1805 30.6468 76.1571 29.5711C75.0515 28.4133 73.2662 31.461 72.8479 30.729C72.5715 30.2434 74.5809 28.5701 75.4773 25.993C76.2766 23.6997 75.3653 21.4288 73.3185 23.9387C72.6836 24.7156 72.2055 25.5597 71.8992 25.2535C71.5705 24.9248 72.3549 23.0125 72.9301 21.2272C73.8937 18.2093 72.4221 16.2073 69.9047 19.8601C68.8291 21.4139 68.3435 23.4607 67.5367 23.3113C66.9616 23.2067 67.2529 22.0414 67.1558 20.8835C66.9541 18.4707 64.6459 18.7396 63.854 22.9975C63.503 24.88 63.8092 27.0537 63.3834 27.2031C62.6439 27.4646 62.8082 24.26 61.5981 24.5737C60.7167 24.8053 60.388 26.994 60.4403 29.3097C60.4926 31.6254 61.9641 35.3529 61.9641 35.3529L64.0184 39.0879L67.2155 37.2502V37.2502Z" fill="#BDCE44"/>
<path d="M61.486 35.5844C61.486 35.5844 59.8352 39.4389 62.0986 44.399C63.7495 48.0219 66.11 50.5767 64.7131 52.0258C62.6439 54.1623 55.3532 49.5383 48.1671 51.6598C42.5721 53.3107 39.9053 56.4929 38.2768 62.3344C37.0592 66.7044 35.8566 68.4 33.8247 68.9976C32.2411 69.4608 29.7611 69.1172 28.4463 67.9145C25.6675 65.3598 25.7347 62.4091 26.7805 59.9291C27.7591 57.6059 30.9936 55.335 32.4951 54.5582C36.6484 52.3993 46.8524 49.247 49.7432 43.7267C52.3204 38.804 53.0002 33.1567 51.424 29.474C49.8478 25.7913 47.323 27.106 47.323 27.106L47.8982 35.8309L37.8585 46.3487L23.3966 56.2314L21.4022 66.7492L26.4519 75.2649L36.865 74.4731L47.4873 58.4874L57.7436 57.7479L67.4695 57.225L71.1522 46.9164L61.486 35.5844V35.5844Z" fill="#6D8038"/>
<path d="M69.0531 26.5757C67.32 25.4029 61.4113 30.7813 61.359 36.832C61.3067 42.8752 64.952 47.1405 65.6916 48.3507C66.4311 49.5608 68.7617 53.8037 65.7439 55.7086C63.3236 57.2474 52.0215 52.2873 46.18 56.0223C40.3459 59.7573 42.3255 66.174 36.962 71.3582C34.9526 73.3078 24.151 75.1081 23.2546 64.3812C22.3582 53.6543 35.3485 53.1314 41.7652 48.4478C48.1819 43.7716 50.2287 39.8274 50.0196 34.3071C49.8104 28.7868 48.1819 27.0538 48.1819 27.0538L37.8734 31.2594L33.1374 38.9385C33.1374 38.9385 26.9597 41.2019 21.4992 44.8771C15.0675 49.2097 13.9246 52.3471 13.9246 52.3471C13.9246 52.3471 12.4157 51.8765 12.4157 51.503C12.4157 51.1295 17.7119 45.1012 17.2562 42.4568C16.696 39.2149 14.9107 38.3409 13.8574 38.2363C12.8041 38.1317 12.2065 39.0431 12.9834 40.2308C13.7528 41.426 14.1413 42.4718 13.9993 42.9275C13.8574 43.3831 13.3943 43.8612 13.2972 43.0694C13.1926 42.1954 12.5576 40.7014 12.102 40.0889C11.7285 39.5884 10.5631 38.1243 9.12144 38.3708C7.67973 38.6173 7.58262 39.9843 8.77035 41.1048C9.96555 42.2253 11.1159 43.8014 10.5258 44.5036C9.9282 45.2058 8.94963 42.9424 8.31468 42.1058C7.6872 41.2617 6.12598 40.9404 5.19223 40.7537C4.21367 40.5595 2.60015 41.6426 3.54137 43.2038C4.24354 44.3617 5.19223 43.8014 6.34261 45.0265C7.49298 46.2516 7.5378 46.7073 7.50045 47.021C7.46311 47.3347 5.28934 48.9483 5.0503 50.4198C4.80379 51.8914 5.22211 52.8028 4.66186 53.3257C4.10162 53.8486 1.71869 53.744 0.949286 53.9905C0.179879 54.237 -0.664229 56.2016 0.807356 56.8291C2.27894 57.4566 4.9756 57.5686 6.23803 57.1802C7.15684 56.8963 7.43323 56.478 7.81419 56.5527C8.20263 56.6199 11.2504 58.8684 11.2504 58.8684C11.2504 58.8684 10.8171 62.1104 10.8844 64.8593C10.974 68.4374 12.0422 71.2387 12.0422 71.2387C12.0422 71.2387 13.1104 72.7625 12.6547 72.7476C11.355 72.6953 7.81419 69.1695 6.06622 68.7885C4.31078 68.4001 2.91389 68.5121 2.24159 69.2815C1.62905 69.9837 1.40495 71.53 2.63003 71.6271C3.96716 71.7317 4.59463 71.4553 4.59463 71.9408C4.59463 72.2621 4.16138 72.5235 3.29486 72.8148C2.04737 73.2331 1.69628 74.2267 1.99508 75.4443C2.27894 76.5872 3.85511 76.251 4.31078 75.8999C4.76644 75.5488 4.93825 75.1978 5.18476 75.5115C5.43127 75.8252 4.3556 76.632 4.02692 77.3715C3.36209 78.858 4.29583 79.5005 5.28934 79.5826C6.65635 79.6872 6.86551 77.9318 7.50045 77.2669C8.12793 76.6021 8.93469 76.0717 9.21855 76.1091C9.50241 76.1464 9.39036 77.2669 10.6528 78.6339C11.9152 80.0009 13.6333 79.2315 13.9097 79.478C14.1861 79.7246 13.7005 81.5472 14.7837 82.5258C15.8668 83.5044 17.6223 83.086 17.6223 81.5771C17.6223 80.0682 17.7642 79.4407 17.7642 79.4407C17.7642 79.4407 19.8857 81.3007 22.657 82.2793C25.4284 83.2579 29.2157 84.087 29.2157 84.087C29.2157 84.087 28.8347 84.7668 28.9169 86.1039C28.9542 86.6492 29.0737 88.315 30.6873 88.2777C31.8451 88.2553 31.8974 86.0367 32.3157 85.962C32.734 85.8948 31.9123 88.8529 34.0488 88.9948C36.1852 89.1367 35.5054 86.3504 35.8864 86.2757C36.2748 86.2085 36.2823 89.8912 39.076 88.6213C40.5476 87.9565 38.583 84.707 38.725 84.4157C38.8146 84.2439 40.1965 84.0273 41.1079 83.4371C41.7129 83.0412 42.0864 82.1747 42.0864 82.1747C42.0864 82.1747 46.5012 80.9272 48.3239 77.633C50.8114 73.136 50.3931 67.8025 52.3577 66.0844C54.3223 64.3663 58.1095 65.7333 59.9322 65.9425C61.7549 66.1516 61.9267 66.0844 62.0387 66.1516C62.1433 66.2188 62.3525 67.063 62.1807 67.3095C62.0089 67.556 57.0264 69.3413 55.8387 71.3432C54.6435 73.3377 54.8153 74.7645 54.9273 75.3023C55.1738 76.4602 56.3093 76.617 56.8172 75.6534C57.3177 74.7047 57.5866 73.8681 58.0124 74.0026C58.4307 74.1445 57.6091 75.7132 57.9452 76.4527C58.4382 77.5359 59.6633 77.364 60.1563 76.9756C60.6493 76.5872 60.7689 75.0484 61.1199 75.2202C61.471 75.392 61.1199 76.0643 61.7698 77.1997C62.345 78.2082 64.2424 77.2893 63.9585 75.7953C63.7867 74.884 63.0323 74.1968 64.1154 73.3228C65.1985 72.4488 66.08 72.4787 67.2005 71.784C68.321 71.0818 68.2164 70.0659 69.4788 70.5215C70.7413 70.9772 70.7786 72.1201 71.7198 71.4702C73.1391 70.4917 72.4594 68.5271 71.2642 67.5784C70.069 66.6297 68.321 66.5251 68.0745 66.4205C67.828 66.316 67.7234 64.9863 67.7234 64.9863C67.7234 64.9863 74.8049 62.2149 75.6117 55.238C76.4185 48.261 68.3882 40.7238 67.8653 36.2045C67.3574 31.715 70.5695 27.5991 69.0531 26.5757Z" fill="#00AA48"/>
<path d="M20.5355 81.353C21.4917 81.8684 22.5076 82.3166 23.5011 82.6453C26.3546 83.5865 29.253 84.1169 29.253 84.1169C29.253 84.1169 29.8506 82.8918 31.8451 81.9804C32.973 81.465 35.4232 81.0691 35.4232 81.0691C35.4232 81.0691 31.8152 80.9645 28.1698 80.3669C26.6011 80.1129 24.6365 79.4406 22.8512 78.2604L20.5355 81.353V81.353Z" fill="#7BD989"/>
<path d="M28.8346 46.0872C31.113 44.8771 33.3017 43.8462 35.0048 43.1067L32.973 39.0505C31.352 39.6108 29.238 40.4773 26.6683 41.8219L28.8346 46.0872Z" fill="#7BD989"/>
<path d="M17.3234 56.6796C18.3244 54.5208 19.7512 52.5935 21.3647 51.0248L18.556 47.0209C15.9564 49.1947 14.1263 51.5178 12.9087 53.9829L17.3234 56.6796V56.6796Z" fill="#7BD989"/>
<path d="M12.4009 55.0885C11.1459 58.1064 10.7799 60.5565 10.8471 64.2019L15.8221 63.918C15.7175 61.7741 16.1134 59.705 16.8455 57.7852L12.4009 55.0885V55.0885Z" fill="#7BD989"/>
<path d="M14.2758 75.5562C15.1647 76.7813 16.1806 77.8868 17.2637 78.9999C17.8389 79.59 18.6009 80.1876 19.4674 80.7329L21.8877 77.5731C21.2677 77.0801 20.6925 76.5198 20.1696 75.8849C19.4525 75.0109 18.7503 74.0846 18.1153 72.9716L14.2758 75.5562V75.5562Z" fill="#7BD989"/>
<path d="M13.6186 74.5926C12.147 72.2695 11.1236 69.4533 10.892 65.3597L15.8894 64.9041C16.136 68.0041 16.7784 70.2302 17.6225 72.0006L13.6186 74.5926V74.5926Z" fill="#7BD989"/>
<path d="M22.2314 50.233C22.9261 49.6354 23.6506 49.0976 24.3827 48.6419C25.4957 47.9472 26.6461 47.2749 27.7965 46.6474L25.69 42.3447C24.5844 42.9498 23.2099 43.7117 21.9475 44.5035C20.954 45.131 20.0576 45.7659 19.3928 46.3486L22.2314 50.233Z" fill="#7BD989"/>
<path d="M35.9236 42.7107C36.2672 42.5688 36.581 42.4418 36.8574 42.3298C39.3822 41.3512 40.1516 39.8423 39.6586 38.6844C39.1656 37.5266 37.2383 37.8104 36.7827 37.9822C36.5959 38.0495 35.6323 38.1989 33.9515 38.7218L35.9236 42.7107V42.7107Z" fill="#7BD989"/>
<path d="M15.8966 14.6088C15.8966 14.6088 15.5828 10.6497 18.2421 8.54317C20.9089 6.43663 25.1145 7.84099 27.4228 8.25931C29.731 8.67763 32.7488 8.6104 34.9226 8.11738C37.0964 7.62436 37.9405 7.20604 39.2701 7.13881C40.5998 7.07158 42.527 6.92965 44.2153 6.78772C45.642 6.6682 48.4956 6.2947 48.9512 7.63183C49.2948 8.62534 48.3237 9.62631 46.7775 10.0148C45.2386 10.4032 44.783 10.575 45.0967 11.2772C45.4104 11.9794 47.9727 11.5237 48.5329 11.3444C49.0932 11.1726 52.3575 10.5003 52.3575 12.3977C52.3575 14.295 49.6907 14.8478 47.9727 15.2736C46.2546 15.6919 45.2088 15.4454 45.276 16.3269C45.3806 17.7312 49.7654 16.3941 51.0951 16.2223C52.4248 16.0505 54.113 15.804 54.2848 17.0664C54.4566 18.3288 53.1269 19.6958 50.6021 20.1142C48.0772 20.5325 46.4338 20.9583 46.4637 21.6231C46.4936 22.2879 49.6011 21.6082 50.4975 21.4513C51.6553 21.2421 53.2987 21.2122 53.478 22.4C53.8963 25.2012 48.9213 24.7157 48.8168 25.8362C48.7196 26.8371 52.7758 25.7689 53.2689 27.4123C53.7619 29.0632 52.2156 30.4974 49.7654 30.7066C48.0623 30.856 42.2282 29.6907 41.3169 30.6692C40.4056 31.6478 43.528 31.8719 44.5738 32.1035C45.9782 32.4172 48.3237 32.5965 47.2705 34.7329C46.5832 36.1373 44.0136 35.7488 42.1386 35.8385C40.2636 35.9281 36.932 36.1373 36.932 36.1373L29.4322 36.4883L23.1574 35.7488L19.1983 34.2772L16.1804 33.0148L15.2318 31.9989L23.9567 21.2347L15.8966 14.6088V14.6088Z" fill="url(#paint0_linear)"/>
<path d="M40.137 34.5461C40.137 36.9738 38.4787 39.6705 35.035 39.7004C31.5913 39.7303 29.8284 37.6237 29.2757 37.4669C28.7229 37.31 28.5361 39.4613 26.6238 39.5734C24.704 39.678 21.8654 37.183 21.4994 37.1008C21.1334 37.0187 21.0288 38.9907 18.9521 38.9907C17.503 38.9907 15.8222 36.7273 14.7167 35.7039C13.6111 34.6806 11.639 33.1791 11.639 33.1791H17.2116C17.2116 33.1791 19.0791 32.9699 21.4172 33.1791C23.6881 33.3808 25.5481 35.1736 29.3055 35.0989C31.4121 35.0541 32.4056 34.8598 32.4056 34.8598C32.4056 34.8598 33.1675 32.1109 36.641 31.9391C39.8755 31.7822 40.137 33.9933 40.137 34.5461V34.5461Z" fill="#BECE44"/>
<path d="M28.6405 12.0988C28.6405 12.0988 32.2709 10.7169 32.7266 9.73082C33.1822 8.75226 34.6165 5.06956 36.4765 4.40473C38.3365 3.7399 39.4197 5.59993 38.1274 7.03416C36.8351 8.4684 34.9377 9.66359 35.991 10.3284C37.0442 10.9932 39.3524 7.73634 39.95 6.96693C40.5476 6.19753 41.9146 4.19557 43.4535 4.23292C44.9923 4.27027 45.9484 6.90717 42.9978 9.34985C39.95 11.8747 38.4411 12.4723 34.9377 12.7113C31.4343 12.9579 29.7461 13.182 29.7461 13.182L28.6405 12.0988V12.0988Z" fill="#FFBA02"/>
<path d="M10.7051 12.2557C10.7051 12.2557 8.94967 6.43659 12.0348 3.91174C15.1199 1.38689 19.1537 2.96305 21.6038 4.47199C23.8523 5.85393 28.2521 5.62236 28.0877 3.06763C27.9458 0.85652 25.5181 1.47653 25.3164 2.47003C25.1446 3.34402 24.7711 3.90427 24.4424 3.79969C24.0689 3.68764 23.8373 2.93317 23.8821 2.47003C24.054 0.475551 25.7422 -0.122047 27.0718 0.0198827C28.1176 0.131932 29.8731 0.89387 29.7013 3.70258C29.5295 6.51129 26.6012 7.29564 23.7776 6.82503C21.544 6.45153 19.5346 4.89778 17.5103 4.35247C16.2702 4.02379 14.5223 4.29271 13.4541 5.06959C12.2066 5.98092 11.8779 7.42263 11.8854 8.61035C11.8928 9.36482 12.0348 10.0595 12.102 10.575C12.2589 11.7477 13.5736 15.3109 13.5736 15.3109L10.7051 12.2557V12.2557Z" fill="#7CDB8B"/>
<path d="M30.971 16.394C30.971 16.394 32.7563 16.7825 32.831 18.8442C32.9057 20.9059 32.5845 21.0852 32.7638 21.1599C32.9431 21.2346 34.3773 20.3904 35.1467 21.369C36.1178 22.609 34.3773 24.6259 33.3913 25.2982C32.4127 25.963 31.8151 26.0676 31.6732 26.3814C31.5312 26.6951 30.2091 30.7662 28.4163 31.4983C26.3471 32.3424 20.386 31.9913 19.5793 31.9913C18.7725 31.9913 17.9658 32.7831 17.2113 33.1716C16.4568 33.56 15.7248 33.814 14.8433 33.5974C13.9693 33.3882 12.6322 32.4022 12.6322 32.4022L30.971 16.394Z" fill="#7CDB8B"/>
<path d="M19.0191 25.5747L21.1555 25.6793L22.2387 21.8546C22.2387 21.8546 19.2582 20.8387 18.2049 21.0479C17.1516 21.257 14.8733 22.131 14.1412 22.5195C13.4017 22.9079 12.8116 23.8865 11.4072 23.6773C10.0029 23.4682 6.99247 22.9079 5.19968 24.9397C3.65339 26.7027 3.93725 28.1967 5.26691 28.8316C6.59656 29.4591 8.28478 27.4646 9.36792 27.2928C10.4511 27.121 12.1019 27.8904 12.1019 27.8904L19.0191 25.5747V25.5747Z" fill="#D43330"/>
<path d="M11.1309 21.1599C11.1309 21.1599 11.7957 24.2077 12.6025 24.2077C13.4093 24.2077 13.4093 23.2291 13.4093 23.2291C13.4093 23.2291 16.4944 22.4223 17.092 22.0712C17.6896 21.7201 18.4216 20.2859 18.4216 20.2859L12.9536 19.8975L11.1309 21.1599Z" fill="white"/>
<path d="M11.0561 29.4665C11.0561 29.4665 10.4286 28.0995 10.6677 27.5019C10.9142 26.9043 11.1233 25.8212 11.8255 25.8884C12.5949 25.9631 12.6995 27.1508 12.6995 27.1508C12.6995 27.1508 14.7313 25.2908 16.3075 24.6633C17.1516 24.3272 18.5858 24.2076 18.6904 24.8725C18.795 25.5373 18.302 27.4347 18.302 27.4347L11.0561 29.4665Z" fill="white"/>
<path d="M8.7481 26.9416C8.48665 27.4197 8.25508 29.1826 8.68087 30.4451C9.09919 31.7075 10.5035 33.6721 12.6773 33.8065C14.8511 33.941 18.8849 29.3171 19.1239 29.1826C19.3704 29.0407 26.2054 29.952 28.1327 27.218C30.0599 24.484 29.0515 19.6733 30.0226 18.1719C31.0759 16.5584 32.6147 17.6116 32.6147 17.6116C32.6147 17.6116 32.4429 16.4911 31.666 15.7217C30.8966 14.9523 29.806 15.0943 30.1272 14.1829C30.4409 13.2716 32.8238 14.1157 32.9658 13.4434C33.1077 12.7786 32.1515 12.1063 31.0609 11.9046C30.5455 11.8075 29.2457 12.0465 29.1785 11.7328C29.1112 11.419 30.1944 11.3817 30.2317 10.6496C30.2691 9.91009 27.4604 10.194 26.3025 10.3359C25.1447 10.4778 23.6358 11.1426 23.5312 10.8588C23.4266 10.5749 25.4211 9.52912 25.3539 9.17803C25.2866 8.82695 23.703 8.51321 21.3574 9.77563C19.0118 11.0381 15.9566 14.1232 15.9566 14.1232L13.6409 13.9513C13.6409 13.9513 10.4139 10.1342 8.34472 10.6197C6.16349 11.1352 5.4389 13.2492 5.46878 16.2297C5.49866 19.2102 6.76855 20.8536 9.98811 21.4512C11.8108 21.7874 16.5468 21.2869 17.5253 21.242C20.0875 21.1225 20.5731 22.258 20.715 23.2365C20.8569 24.2151 18.9596 25.3057 18.0482 25.5149C17.1369 25.724 15.9118 25.9332 14.9258 26.598C13.9472 27.2628 12.8192 29.1229 12.1544 29.0855C11.4896 29.0482 11.3476 27.8903 10.9966 27.1956C10.6754 26.486 9.37558 25.7913 8.7481 26.9416V26.9416Z" fill="#02AB47"/>
<path d="M26.4892 14.1158C26.4593 14.4071 25.675 17.0589 23.6506 18.2168C21.6263 19.3746 19.572 19.031 19.0267 17.3503C18.4142 15.4753 19.445 13.5406 21.8952 13.8767C24.1063 14.1905 26.6461 12.7189 26.4892 14.1158V14.1158Z" fill="#79DA89"/>
<path d="M22.389 17.0851C22.9664 16.3636 22.928 15.3733 22.3032 14.8731C21.6784 14.373 20.7037 14.5524 20.1262 15.2739C19.5487 15.9953 19.5871 16.9856 20.2119 17.4858C20.8368 17.9859 21.8115 17.8065 22.389 17.0851Z" fill="#2F2E2F"/>
<path d="M8.65835 12.801C8.19521 13.2193 8.97209 14.2801 9.02438 14.8851C9.07667 15.4902 8.79281 16.5883 9.58462 16.536C10.3764 16.4837 10.6155 15.5574 10.4511 14.4817C10.227 13.0326 9.47257 12.0615 8.65835 12.801Z" fill="#2F2E2F"/>
<defs>
<linearGradient id="paint0_linear" x1="56.3928" y1="21.0636" x2="25.2647" y2="21.9047" gradientUnits="userSpaceOnUse">
<stop stop-color="#01AB46"/>
<stop offset="0.396" stop-color="#128A3C"/>
<stop offset="1" stop-color="#2F502A"/>
</linearGradient>
</defs>
</svg>
