<svg width="64" height="86" viewBox="0 0 64 86" fill="none" xmlns="http://www.w3.org/2000/svg">
<path d="M36.4494 35.5747C36.4494 35.5747 56.5926 3.30523 57.0515 2.49867C57.5104 1.69211 57.6077 0.21109 56.3423 0.21109C55.0768 0.21109 23.6974 32.2441 23.6974 32.2441L1.41259 45.4551C1.41259 45.4551 -0.0823359 46.3729 0.147117 47.5202C0.37657 48.6674 1.37782 48.7161 1.83673 48.7161C2.29563 48.7161 26.0684 48.5909 27.452 48.5492C29.1695 48.5005 28.7453 50.9411 28.7453 50.9411L13.6988 74.5956C13.6988 74.5956 7.12806 83.6903 7.12806 84.3091C7.12806 85.22 8.22665 85.6719 9.24876 85.0601C10.0414 84.5873 61.2859 41.165 63.5457 38.1821C64.1576 37.3686 64.4705 35.227 61.9465 35.227C59.4225 35.227 39.321 41.0816 39.321 41.0816L36.4494 35.5747V35.5747Z" fill="#FEB804"/>
<path d="M32.9242 33.009C32.3053 33.8573 32.1385 35.2757 33.4735 35.3591C34.8015 35.4356 61.9465 35.234 61.9465 35.234C61.9465 35.234 42.5542 53.0548 36.6858 58.374C30.8174 63.6931 11.3834 80.923 10.0762 82.1398C8.79682 83.3357 7.63564 84.4343 7.16283 84.2813C7.08635 84.2605 6.989 83.8502 8.81768 80.8395C10.4864 78.093 26.5064 51.247 27.1322 50.2319C27.758 49.2167 28.3073 48.3545 28.6202 47.8817C28.9331 47.4089 29.9482 44.8293 27.8345 44.8293C25.7207 44.8293 1.4126 45.4551 1.4126 45.4551C1.4126 45.4551 18.2044 31.2081 23.0577 27.3769C27.911 23.5458 55.4175 0.21109 56.3423 0.21109C57.2671 0.21109 33.5499 32.1537 32.9242 33.009Z" fill="#FFC927"/>
<path d="M32.1176 47.1934C33.3691 45.3925 34.5998 45.2604 35.3438 45.7054C36.3033 46.2825 36.4007 47.6106 35.1908 49.2167C33.2857 51.7616 19.2821 70.5002 18.7467 71.1608C17.7315 72.4123 16.2366 71.8631 17.2101 70.0483C18.0236 68.5464 30.8243 49.0568 32.1176 47.1934Z" fill="#FFE567"/>
<path d="M12.2177 43.536C9.81889 45.1422 7.58694 42.7434 9.19311 40.9842C10.7993 39.2251 21.3402 30.4502 23.4748 28.6355C25.6094 26.8207 38.0694 15.9808 39.0359 15.202C40.3153 14.173 41.108 15.2159 40.3014 16.2867C39.5018 17.3575 30.6922 26.1602 26.8054 29.7341C23.8016 32.5014 14.4983 42.0063 12.2177 43.536V43.536Z" fill="#FFE567"/>
</svg>
