<svg width="83" height="85" viewBox="0 0 83 85" fill="none" xmlns="http://www.w3.org/2000/svg">
<path d="M4.50937 84.1423L0.205383 79.8313L63.6387 16.398L67.9427 20.702L4.50937 84.1423Z" fill="url(#paint0_linear)"/>
<path d="M66.5591 17.7886C64.9946 16.2241 63.6457 16.398 63.6457 16.398L52.4373 27.6064C53.0978 27.4604 54.259 28.0236 55.295 29.0527C56.324 30.0817 56.8873 31.2429 56.7412 31.9104L67.9497 20.702C67.9427 20.702 68.1235 19.36 66.5591 17.7886V17.7886Z" fill="url(#paint1_linear)"/>
<path d="M14.4523 69.8953C12.8879 68.3309 11.539 68.5047 11.539 68.5047L0.295776 79.7409C0.956323 79.5949 2.15226 80.1303 3.18828 81.1594C4.21734 82.1884 4.75273 83.3913 4.60671 84.0519L15.843 72.8087C15.843 72.8087 16.0168 71.4598 14.4523 69.8953Z" fill="url(#paint2_linear)"/>
<path d="M4.57656 84.0767C5.10333 83.5499 4.5662 82.1587 3.37685 80.9694C2.1875 79.7801 0.79631 79.243 0.269539 79.7698C-0.257233 80.2966 0.279892 81.6878 1.46924 82.8771C2.65859 84.0664 4.04979 84.6035 4.57656 84.0767Z" fill="#9E9E9E"/>
<path opacity="0.85" d="M63.6248 16.4119L16.3853 63.6584C15.8569 64.1868 16.3922 65.5774 17.5812 66.7594C18.7702 67.9484 20.1608 68.4838 20.6823 67.9554L67.9288 20.7089C67.9288 20.7089 68.2208 19.4017 66.5521 17.7816C64.8833 16.1616 63.6248 16.4119 63.6248 16.4119V16.4119Z" fill="url(#paint3_linear)"/>
<path opacity="0.22" d="M47.4727 32.564L0.233195 79.8105C-0.295242 80.3389 0.240148 81.7295 1.42913 82.9116C2.61812 84.1005 4.00874 84.6359 4.53023 84.1075L51.7837 36.868C51.7837 36.868 52.0757 35.5608 50.4069 33.9407C48.7312 32.3276 47.4727 32.564 47.4727 32.564Z" fill="url(#paint4_linear)"/>
<path d="M44.5385 11.0858L48.6965 6.94172C48.9259 6.71226 49.3222 6.9 49.2875 7.2268L48.7521 12.087C48.7312 12.2748 48.8633 12.4486 49.058 12.4695L55.0099 13.1787C55.3576 13.2204 55.434 13.6932 55.1072 13.8392L48.9051 16.6135C48.8147 16.6552 48.7451 16.7387 48.7173 16.836L46.9234 22.9895C46.84 23.2885 46.4367 23.3302 46.2907 23.0591L43.5164 18.018C43.4836 17.9594 43.4348 17.9112 43.3757 17.8792C43.3166 17.8472 43.2497 17.8327 43.1826 17.8373L37.8565 18.2684C37.7857 18.2744 37.7147 18.2584 37.6533 18.2225C37.5918 18.1867 37.543 18.1328 37.5133 18.0681C37.4836 18.0035 37.4746 17.9313 37.4875 17.8613C37.5004 17.7914 37.5346 17.7271 37.5854 17.6773L41.1176 14.2355C41.2219 14.1382 41.2497 13.9783 41.194 13.8462L39.3237 9.57C39.1985 9.27797 39.4975 8.97898 39.7895 9.11805L44.163 11.1623C44.2812 11.2179 44.4342 11.1901 44.5385 11.0858V11.0858Z" fill="url(#paint5_radial)"/>
<path d="M59.6407 41.9855L62.9365 43.5082C63.0199 43.5499 63.1173 43.536 63.1868 43.4804L66.4895 40.9842C66.6634 40.8521 66.8998 40.9912 66.8859 41.1998L66.573 45.3021C66.566 45.3925 66.6078 45.4829 66.6912 45.5316L69.841 47.4784C70.0287 47.5967 69.98 47.8887 69.7575 47.9304L65.8081 48.7439C65.7108 48.7648 65.6343 48.8343 65.6135 48.9317L64.7721 52.6516C64.7235 52.8741 64.4245 52.9158 64.3132 52.7142L62.561 49.5088C62.5396 49.4685 62.5075 49.4348 62.4683 49.4115C62.4291 49.3882 62.3842 49.3762 62.3385 49.3767L58.1945 49.5088C57.9789 49.5157 57.8607 49.2654 57.9928 49.0985L60.6628 45.907C60.7254 45.8375 60.7393 45.7402 60.7045 45.6498L59.3 42.2984C59.2235 42.0967 59.4391 41.8881 59.6407 41.9855V41.9855Z" fill="url(#paint6_radial)"/>
<path d="M73.241 6.10038L79.1025 3.49991C79.3946 3.36781 79.6518 3.65984 79.4988 3.93796L76.5994 9.27796C76.5299 9.40312 76.5438 9.55609 76.6342 9.65343L82.9128 15.7444C83.1006 15.9391 82.9406 16.2867 82.6556 16.3006L74.9515 14.9448C74.8333 14.9517 74.7221 15.0212 74.6595 15.1325L70.6058 22.5515C70.4528 22.8227 70.0635 22.7948 70.0009 22.5098L69.2082 15.2855C69.1927 15.2237 69.1582 15.1683 69.1096 15.1271C69.0609 15.0859 69.0006 15.0611 68.937 15.056L62.5749 14.02C62.3038 13.9991 62.1995 13.6723 62.4081 13.4707L67.7272 9.38226C67.8037 9.30577 67.8454 9.20148 67.8315 9.09718L66.8789 1.04546C66.8511 0.739524 67.2335 0.537883 67.4491 0.746477L72.8864 6.04476C72.9768 6.1282 73.1159 6.14905 73.241 6.10038V6.10038Z" fill="url(#paint7_radial)"/>
<path d="M63.9516 16.683C61.3512 17.3505 58.7159 17.9277 56.0251 18.1502C53.3342 18.3935 50.6016 18.1988 47.9455 17.7191C45.2894 17.2254 42.682 16.6066 40.0537 16.1198C37.4255 15.6331 34.7833 15.2438 32.1272 14.9378C30.7991 14.7848 29.4641 14.6736 28.1361 14.5415C26.8358 14.4163 25.5495 14.4511 24.3258 14.7362C23.1229 15.0421 22.0034 15.6192 21.2803 16.5648C20.5502 17.4966 20.2026 18.7064 20.2026 19.951C20.1887 22.4611 21.1969 24.9642 22.4762 27.224C23.7626 29.4977 25.4522 31.5627 27.1418 33.6278C30.5071 37.7719 34.1436 41.7143 37.7523 45.6845C39.5601 47.6731 41.3679 49.6548 43.1479 51.6712C44.9418 53.6737 46.6731 55.7388 48.328 57.8664C49.9898 59.9871 51.5681 62.2052 52.8544 64.6109C53.1743 65.195 53.5289 65.8416 53.6332 66.6204C53.668 67.0167 53.6262 67.4548 53.4037 67.8441C53.1812 68.2335 52.8127 68.4769 52.4581 68.6368C51.728 68.9288 51.0049 68.9497 50.3096 68.9149C49.6143 68.8732 48.9329 68.762 48.2654 68.609C45.6093 67.9623 43.127 66.8568 40.7351 65.6122C39.5392 64.9864 38.3711 64.3189 37.2238 63.6166C36.0835 62.9074 34.9641 62.1565 33.8655 61.3916C36.1461 62.8101 38.4823 64.1312 40.8951 65.2784C43.3078 66.4188 45.8179 67.4131 48.3975 67.9345C49.0441 68.0527 49.6908 68.1501 50.3305 68.1709C50.9701 68.1918 51.6168 68.1362 52.1313 67.9137C52.3816 67.7955 52.5902 67.6425 52.6945 67.4339C52.7988 67.2323 52.8266 66.975 52.7988 66.7038C52.7154 66.1476 52.4164 65.5913 52.0757 65.0142C50.7755 62.7197 49.1832 60.5781 47.4866 58.52C40.7004 50.2875 32.9685 42.8059 26.071 34.5039C24.3814 32.411 22.6709 30.2834 21.329 27.8706C20.0079 25.4788 18.9162 22.8227 18.951 19.9232C18.9649 18.4909 19.3821 16.982 20.3277 15.8C21.2664 14.5971 22.6709 13.9018 24.0546 13.568C25.4522 13.2621 26.8845 13.2273 28.2543 13.3873C29.5893 13.5541 30.9312 13.6932 32.2662 13.8809C34.9362 14.2564 37.5923 14.7153 40.2276 15.2646C42.8628 15.8209 45.4702 16.4884 48.0776 17.0516C50.6781 17.6217 53.3342 17.9207 56.0042 17.7816C58.6673 17.6565 61.3164 17.2045 63.9516 16.683V16.683Z" fill="#FDD835"/>
<path d="M44.1283 22.7809C36.306 24.6027 27.3295 19.3044 19.0414 20.2361C15.8777 20.6533 14.5775 24.4358 17.616 30.4294C23.5818 40.6991 32.2871 46.7623 35.4995 50.5239C31.1816 48.1042 22.3094 41.7282 16.142 35.7277C6.85954 26.8277 8.57696 15.7027 17.1849 15.7374C20.0705 15.4593 25.6538 16.8499 27.9901 17.7052C30.2916 18.6299 38.1277 22.0439 44.1283 22.7809V22.7809Z" fill="url(#paint8_radial)"/>
<defs>
<linearGradient id="paint0_linear" x1="31.9213" y1="48.1155" x2="36.2272" y2="52.4215" gradientUnits="userSpaceOnUse">
<stop offset="0.595" stop-color="#616161"/>
<stop offset="0.775" stop-color="#565656"/>
<stop offset="1" stop-color="#424242"/>
</linearGradient>
<linearGradient id="paint1_linear" x1="58.7994" y1="22.0008" x2="63.5171" y2="26.7192" gradientUnits="userSpaceOnUse">
<stop offset="0.262" stop-color="#F5F5F5"/>
<stop offset="0.466" stop-color="#EAEAEA"/>
<stop offset="0.822" stop-color="#CDCDCD"/>
<stop offset="0.989" stop-color="#BDBDBD"/>
</linearGradient>
<linearGradient id="paint2_linear" x1="6.67388" y1="74.12" x2="11.4034" y2="78.8489" gradientUnits="userSpaceOnUse">
<stop offset="0.262" stop-color="#F5F5F5"/>
<stop offset="0.466" stop-color="#EAEAEA"/>
<stop offset="0.822" stop-color="#CDCDCD"/>
<stop offset="0.989" stop-color="#BDBDBD"/>
</linearGradient>
<linearGradient id="paint3_linear" x1="44.5496" y1="39.7931" x2="68.606" y2="15.7367" gradientUnits="userSpaceOnUse">
<stop stop-color="#FADA80" stop-opacity="0"/>
<stop offset="1" stop-color="#FADA80"/>
</linearGradient>
<linearGradient id="paint4_linear" x1="-4.74524" y1="89.088" x2="11.9033" y2="72.4395" gradientUnits="userSpaceOnUse">
<stop stop-color="#1A237E"/>
<stop offset="0.186" stop-color="#1D2A87" stop-opacity="0.814"/>
<stop offset="0.49" stop-color="#243DA0" stop-opacity="0.51"/>
<stop offset="0.873" stop-color="#2F5CC7" stop-opacity="0.127"/>
<stop offset="1" stop-color="#3367D6" stop-opacity="0"/>
</linearGradient>
<radialGradient id="paint5_radial" cx="0" cy="0" r="1" gradientUnits="userSpaceOnUse" gradientTransform="translate(49.7859 14.0444) rotate(2.144) scale(10.2795)">
<stop stop-color="#FFEB3B"/>
<stop offset="1" stop-color="#FBC02D"/>
</radialGradient>
<radialGradient id="paint6_radial" cx="0" cy="0" r="1" gradientUnits="userSpaceOnUse" gradientTransform="translate(65.3258 42.8668) rotate(-20.089) scale(8.2624)">
<stop stop-color="#FFEB3B"/>
<stop offset="1" stop-color="#FBC02D"/>
</radialGradient>
<radialGradient id="paint7_radial" cx="0" cy="0" r="1" gradientUnits="userSpaceOnUse" gradientTransform="translate(72.1126 11.2375) rotate(104.711) scale(11.1446 12.0473)">
<stop offset="0.325" stop-color="#FFEB3B"/>
<stop offset="1" stop-color="#FBC02D"/>
</radialGradient>
<radialGradient id="paint8_radial" cx="0" cy="0" r="1" gradientUnits="userSpaceOnUse" gradientTransform="translate(61.4991 46.7334) rotate(30.6965) scale(65.1722 39.0575)">
<stop stop-color="#FFEE58" stop-opacity="0"/>
<stop offset="1" stop-color="#FDD835"/>
</radialGradient>
</defs>
</svg>
