<svg width="59" height="85" viewBox="0 0 59 85" fill="none" xmlns="http://www.w3.org/2000/svg">
<path d="M11.4244 59.0276C11.4244 59.0276 11.1393 78.7466 11.7095 79.5393C12.2866 80.332 17.4667 84.0032 27.4027 84.1423C37.3387 84.2813 42.9499 80.1095 43.0959 79.1777C43.2419 78.2391 43.5965 57.6578 43.5965 57.6578C43.5965 57.6578 48.9226 54.8488 52.6634 48.5145C56.4042 42.1802 58.9977 33.5444 58.8516 26.487C58.7195 20.1527 56.3346 19.1445 55.1109 18.2823C53.8871 17.4201 52.6634 17.5591 52.6634 17.5591C52.6634 17.5591 51.9681 8.47141 48.1299 4.74454C43.2419 0.00945833 35.7534 0.294537 27.4792 0.294537C19.0589 0.294537 10.6595 -0.2339 4.80501 7.92212C-0.305537 15.0491 0.918212 26.2019 1.20329 31.7435C1.48837 37.2852 3.55345 46.2964 5.09009 49.8077C8.1147 56.7261 11.4244 59.0276 11.4244 59.0276V59.0276Z" fill="#DC0D28"/>
<path d="M16.1873 72.6627C16.1108 75.9584 17.3484 78.2391 27.5626 78.2043C37.7767 78.1695 38.4929 76.2922 38.6041 72.9269C38.6945 70.2986 37.5542 68.6229 33.5144 68.7689C30.6358 68.8732 24.0721 68.7967 20.4495 68.6924C18.4679 68.6368 16.2568 69.2974 16.1873 72.6627V72.6627Z" fill="#FFC402"/>
<path d="M11.4243 59.0276C11.4243 59.0276 18.0646 61.2109 27.3261 61.3082C36.7893 61.4055 43.5965 57.6648 43.5965 57.6648L43.4643 62.8727C43.4643 62.8727 37.4151 65.7999 27.4235 65.7999C17.4318 65.7999 11.3826 63.408 11.3826 63.408L11.4243 59.0276V59.0276Z" fill="#950D19"/>
<path d="M38.1522 16.1963C39.5637 17.9277 41.9069 16.4884 43.4157 16.099C44.9245 15.7096 47.7058 15.7583 47.8031 16.0016C47.9005 16.245 44.2431 16.9751 42.2963 21.0705C40.7874 24.2341 41.2046 28.1209 41.3506 29.4351C41.5592 31.3333 42.5883 34.0867 45.0775 34.0867C48.1021 34.0867 48.3941 31.4028 48.4915 30.04C48.5888 28.6772 47.6919 22.4194 49.4093 19.7285C50.9042 17.3784 52.6703 17.5591 52.6703 17.5591C52.6703 17.5591 52.5382 16.238 52.3922 15.3619C52.2462 14.4859 52.0584 13.5472 52.0584 13.5472C52.0584 13.5472 49.3745 12.1427 47.372 11.3152C45.3695 10.4878 41.6635 10.1541 39.3203 11.9549C37.4291 13.4151 37.7141 15.6609 38.1522 16.1963V16.1963Z" fill="#950D19"/>
</svg>
