<svg width="99" height="89" viewBox="0 0 99 89" fill="none" xmlns="http://www.w3.org/2000/svg">
<path d="M54.8904 50.4744C53.7135 50.4744 52.52 50.502 51.3155 50.56C50.111 54.0631 50.0226 58.1491 51.3155 64.6414C52.2217 69.1888 58.6615 82.0436 63.9797 86.5578C65.8666 88.1602 68.505 89.0001 71.4113 89.0001C77.3345 89.0001 84.3711 85.5053 88.4212 77.8554C96.712 62.1882 78.8236 50.4744 54.8904 50.4744V50.4744Z" fill="#1C6399"/>
<path d="M92.6343 0C92.0707 0 91.4601 0.0580164 90.8026 0.182337C82.0118 1.84271 65.1041 14.3439 51.3321 32.7019C51.3321 32.7019 49.1523 46.9574 49.1523 49.814C49.1523 50.7423 52.6444 51.1954 57.6006 51.1954C67.8696 51.1954 84.4236 49.2477 89.1616 45.5567C94.4052 41.4707 99.2454 18.4713 98.7979 6.66084C98.6708 3.41468 96.969 0 92.6343 0V0Z" fill="#1C6399"/>
<path d="M74.4884 33.0501L92.8023 31.8455C92.8023 31.8455 89.8877 41.8437 84.2324 44.7086C78.5772 47.5735 62.9072 48.8526 62.9072 48.8526C62.9072 48.8526 69.3443 37.0808 71.9854 34.238C72.6402 33.5308 73.5298 33.1108 74.4884 33.0501V33.0501ZM75.925 27.6573L96.717 5.13862C96.717 5.13862 96.7226 19.9604 93.3852 28.9944C93.3852 28.9944 78.5137 30.0415 77.0467 30.0746C75.1045 30.1188 74.3696 29.3425 75.925 27.6573V27.6573ZM59.161 48.8526L74.3558 25.2399C74.6119 24.9408 74.7892 24.5825 74.8717 24.1976C74.9542 23.8126 74.9393 23.4131 74.8283 23.0353L72.154 14.1035L53.5832 32.3622L51.2515 49.0239L59.161 48.8526V48.8526ZM76.5991 19.0819C77.0743 20.2036 78.0247 20.4633 79.1905 19.4272C80.3564 18.3912 95.9711 2.59142 95.7667 2.24885C95.7667 2.24885 87.9427 -1.0498 74.2177 11.816C74.2177 11.816 76.1239 17.9603 76.5991 19.0819V19.0819ZM51.9421 52.5077L66.7861 66.951C67.058 67.1894 67.2404 67.5135 67.3032 67.8697C67.366 68.2258 67.3054 68.5927 67.1314 68.9098L60.57 80.8833C60.57 80.8833 49.0026 65.7465 51.9421 52.5077ZM72.06 69.9154L87.3902 71.9625C87.3902 71.9625 84.4673 82.5851 78.0136 85.3726C67.2226 90.036 63.3382 83.6459 63.3382 83.6459L69.8361 71.0426C70.0384 70.6423 70.3632 70.3171 70.7632 70.1143C71.1633 69.9116 71.6176 69.8419 72.06 69.9154V69.9154ZM55.622 52.1623L70.4715 65.8598C70.6842 66.0421 70.9384 66.1636 71.2147 66.2161L88.1195 68.7108C88.1195 68.7108 84.7518 60.3371 75.8836 56.1931C65.634 51.4054 55.622 52.1623 55.622 52.1623V52.1623Z" fill="#55ACEE"/>
<path d="M54.8904 50.4744C53.7135 50.4744 52.52 50.502 51.3155 50.56C50.111 54.0631 50.0226 58.1491 51.3155 64.6414C52.2217 69.1888 58.6615 82.0436 63.9797 86.5578C65.8666 88.1602 68.505 89.0001 71.4113 89.0001C77.3345 89.0001 84.3711 85.5053 88.4212 77.8554C96.712 62.1882 78.8236 50.4744 54.8904 50.4744V50.4744ZM84.0009 76.2392C80.3652 83.1072 75.5747 85.834 71.4085 85.834C69.2896 85.834 66.7009 84.9693 65.4688 83.925C60.786 79.9495 55.9734 71.2719 53.7273 63.9673C52.4427 59.7874 52.7493 52.8558 52.7493 52.8558L54.5921 52.7978C68.8696 52.7978 80.1442 58.4834 84.2247 65.263C86.1972 68.5396 86.1226 72.2333 84.0009 76.2392V76.2392Z" fill="#292F33"/>
<path d="M92.6343 3.45336C93.2725 3.45336 95.2174 3.45336 95.3445 6.79069C95.6263 14.1975 93.7035 23.5353 91.485 31.3289C89.9904 36.5808 87.1034 40.4237 85.6999 41.5149C84.1528 42.7195 80.5531 44.9351 75.4255 45.833C69.8173 46.8138 63.8029 48.1343 57.5896 48.1343C55.3049 48.1343 53.6307 48.1868 52.6333 48.0763C52.9952 44.7114 53.9843 38.266 54.6142 34.086C65.024 20.4384 81.4426 5.46183 91.4436 3.57492C91.8718 3.4948 92.2724 3.45336 92.6343 3.45336V3.45336ZM92.6343 0C92.0707 0 91.4601 0.0580164 90.8026 0.182337C82.0118 1.84271 65.1041 14.3439 51.3321 32.7019C51.3321 32.7019 49.1523 46.9574 49.1523 49.814C49.1523 50.7423 52.6444 51.1954 57.6006 51.1954C67.8696 51.1954 84.4236 49.2477 89.1616 45.5567C94.4052 41.4707 99.2454 18.4713 98.7979 6.66084C98.6708 3.41468 96.969 0 92.6343 0V0Z" fill="#292F33"/>
<path d="M10.405 77.8554C14.4551 85.5053 21.4889 89.0001 27.4148 89.0001C30.3212 89.0001 32.9596 88.1602 34.8465 86.5578C40.1646 82.0464 46.6045 69.1916 47.5106 64.6414C48.8036 58.1491 48.7152 54.0659 47.5106 50.56C46.3199 50.5028 45.1279 50.4742 43.9357 50.4744C19.997 50.4744 2.11137 62.1882 10.405 77.8554V77.8554Z" fill="#1C6399"/>
<path d="M6.18959 0C1.85493 0 0.15035 3.41468 0.0287922 6.65808C-0.418763 18.4686 4.42147 41.4707 9.66505 45.554C14.4031 49.2449 30.9543 51.1926 41.226 51.1926C46.1823 51.1926 49.6743 50.7395 49.6743 49.8113C49.6743 46.9574 47.4945 32.6992 47.4945 32.6992C33.7198 14.3439 16.8094 1.84271 8.02125 0.182337C7.4177 0.0646719 6.80449 0.00362773 6.18959 0V0Z" fill="#1C6399"/>
<path d="M24.3315 33.0501L6.02044 31.8455C6.02044 31.8455 8.93508 41.8437 14.5903 44.7086C20.2455 47.5735 35.9155 48.8526 35.9155 48.8526C35.9155 48.8526 29.4784 37.0808 26.8373 34.238C26.1866 33.5335 25.2888 33.1079 24.3315 33.0501V33.0501ZM22.8977 27.6573L2.10571 5.13862C2.10571 5.13862 2.10019 19.9604 5.43752 28.9944C5.43752 28.9944 20.3091 30.0415 21.7761 30.0746C23.7182 30.1188 24.4531 29.3425 22.8977 27.6573V27.6573ZM39.6617 48.8526L24.4669 25.2399C24.2109 24.9408 24.0336 24.5825 23.9511 24.1976C23.8686 23.8126 23.8835 23.4131 23.9945 23.0353L26.6688 14.1035L45.2396 32.3622L47.5713 49.0239L39.6617 48.8526V48.8526ZM22.2208 19.0819C21.7457 20.2036 20.7953 20.4633 19.6294 19.4272C18.4636 18.3912 2.84888 2.59142 3.05332 2.24885C3.05332 2.24885 10.8773 -1.0498 24.6023 11.816C24.605 11.816 22.696 17.9603 22.2208 19.0819ZM46.8806 52.5077L32.0367 66.951C31.7648 67.1894 31.5823 67.5135 31.5195 67.8697C31.4567 68.2258 31.5173 68.5927 31.6913 68.9098L38.2527 80.8805C38.25 80.8833 49.8201 65.7465 46.8806 52.5077V52.5077ZM26.7599 69.9154L11.4298 71.9625C11.4298 71.9625 14.3527 82.5851 20.8064 85.3726C31.5974 90.036 35.4818 83.6459 35.4818 83.6459L28.9839 71.0426C28.7823 70.6417 28.4576 70.316 28.0574 70.1131C27.6571 69.9103 27.2024 69.841 26.7599 69.9154V69.9154ZM43.2007 52.1623L28.3513 65.8598C28.1391 66.0416 27.8828 66.1645 27.6081 66.2161L10.7032 68.7108C10.7032 68.7108 14.0709 60.3371 22.9391 56.1931C33.186 51.4054 43.2007 52.1623 43.2007 52.1623Z" fill="#55ACEE"/>
<path d="M10.405 77.8554C14.4551 85.5053 21.4889 89.0001 27.4148 89.0001C30.3212 89.0001 32.9596 88.1602 34.8465 86.5578C40.1646 82.0464 46.6045 69.1916 47.5106 64.6414C48.8036 58.1491 48.7152 54.0659 47.5106 50.56C46.3199 50.5028 45.1279 50.4742 43.9357 50.4744C19.997 50.4744 2.11137 62.1882 10.405 77.8554V77.8554ZM14.5987 65.2603C18.6792 58.4806 29.9537 52.795 44.2313 52.795L46.074 52.853C46.074 52.853 46.3807 59.7874 45.096 63.9646C42.85 71.2691 38.0374 79.9467 33.3546 83.9222C32.1225 84.9693 29.5338 85.8313 27.4148 85.8313C23.2487 85.8313 18.4582 83.1072 14.8225 76.2364C12.7008 72.2333 12.6262 68.5396 14.5987 65.2603V65.2603Z" fill="#292F33"/>
<path d="M6.18959 3.45336C6.5515 3.45336 6.95209 3.4948 7.38031 3.57492C17.3785 5.46183 33.7999 20.4384 44.2097 34.086C44.8396 38.266 45.8286 44.7114 46.1906 48.0763C45.1932 48.1868 43.519 48.1343 41.2343 48.1343C35.021 48.1343 29.0066 46.8138 23.3984 45.833C18.2708 44.9351 14.671 42.7195 13.1239 41.5149C11.7205 40.4209 8.83348 36.5808 7.33887 31.3289C5.12043 23.5353 3.1976 14.1975 3.47939 6.79069C3.60647 3.45336 5.54864 3.45336 6.18959 3.45336V3.45336ZM6.18959 0C1.85493 0 0.15035 3.41468 0.0287922 6.65808C-0.418763 18.4686 4.42147 41.4707 9.66505 45.554C14.4031 49.2449 30.9543 51.1926 41.226 51.1926C46.1823 51.1926 49.6743 50.7395 49.6743 49.8113C49.6743 46.9574 47.4945 32.6992 47.4945 32.6992C33.7198 14.3439 16.8094 1.84271 8.02125 0.182337C7.4177 0.0646719 6.80449 0.00362773 6.18959 0V0Z" fill="#292F33"/>
<path d="M60.0924 7.70507C59.9285 7.61435 59.7483 7.55689 59.5621 7.53598C59.3759 7.51507 59.1875 7.53113 59.0076 7.58324C58.8276 7.63534 58.6597 7.72247 58.5136 7.83962C58.3674 7.95677 58.2458 8.10163 58.1557 8.2659L50.5859 22.0241C50.5362 22.1153 50.5252 22.212 50.4975 22.3059C50.1467 22.2865 49.8234 22.2562 49.4118 22.2562C49.0029 22.2562 48.6769 22.2838 48.3288 22.3059C48.3012 22.212 48.2902 22.1153 48.2404 22.0241L40.6707 8.2659C40.4882 7.93435 40.1815 7.68885 39.8181 7.58342C39.4546 7.47798 39.0642 7.52125 38.7326 7.70369C38.4011 7.88614 38.1556 8.19282 38.0502 8.55627C37.9447 8.91972 37.988 9.31017 38.1704 9.64172L45.5054 22.9745C42.2482 25.1404 48.6825 32.4726 46.558 48.4022C43.7041 69.8131 49.4118 75.5236 49.4118 75.5236C49.4118 75.5236 55.1223 69.8131 52.2657 48.4022C50.1412 32.4726 56.5755 25.1404 53.3182 22.9745L60.656 9.64172C60.7462 9.47757 60.8032 9.29725 60.8237 9.11105C60.8442 8.92486 60.8279 8.73645 60.7755 8.55659C60.7232 8.37674 60.6359 8.20896 60.5187 8.06285C60.4015 7.91674 60.2566 7.79516 60.0924 7.70507V7.70507Z" fill="#292F33"/>
</svg>
 