<svg width="90" height="89" viewBox="0 0 90 89" fill="none" xmlns="http://www.w3.org/2000/svg">
<path d="M78.1913 76.6248C77.8922 76.0018 77.3944 75.496 76.7763 75.1869C76.1582 74.8778 75.4548 74.7831 74.777 74.9177L74.0686 74.9956H73.8844C71.2068 74.9956 70.0309 74.2872 69.2163 72.2967C67.9766 69.272 68.9967 64.8305 70.0309 61.3029C72.156 54.0492 75.0603 44.125 74.9895 34.3849C74.9824 32.5786 74.8761 30.7793 74.6565 28.9872C74.3094 26.1324 73.6365 23.3202 72.6589 20.6143C72.921 34.2149 70.3567 51.577 58.6474 63.6192C49.297 73.2388 33.3587 78.842 26.9338 77.7866C30.6046 81.7061 35.1183 84.7402 40.1337 86.6595C45.1491 88.5788 50.5351 89.3331 55.8848 88.8654C65.5044 88.0862 76.732 84.1831 78.333 79.7912C78.521 79.2805 78.6053 78.7375 78.5809 78.1938C78.5566 77.6501 78.4242 77.1167 78.1913 76.6248V76.6248Z" fill="#E0E0E0"/>
<path d="M18.9294 30.2268C14.8138 29.7451 10.5494 27.7971 9.01224 23.9011C7.80093 20.8763 6.76672 16.364 3.23197 16.9024C-1.15991 17.5753 -0.132778 26.4228 0.894354 29.8372C5.06664 43.7212 18.6602 45.91 18.8798 45.5771C19.0994 45.2442 19.9494 30.2126 18.9294 30.2268Z" fill="#E0E0E0"/>
<path d="M18.9293 30.2267C16.6908 29.9929 14.5374 29.2704 12.6177 28.1016C13.0923 29.9291 12.894 31.863 12.051 33.556C10.4855 37.0978 6.15741 38.9963 6.15741 38.9963C11.6685 44.7553 18.7238 45.8249 18.908 45.5841C19.1914 45.2015 19.9493 30.2125 18.9293 30.2267V30.2267Z" fill="#CCCCCC"/>
<path d="M70.456 30.2268C74.5717 29.7451 78.836 27.7971 80.3732 23.9011C81.5845 20.8763 82.6187 16.364 86.1535 16.9024C90.5241 17.5683 89.497 26.4228 88.4698 29.8372C84.2975 43.7212 70.704 45.9171 70.4844 45.5771C70.2648 45.2371 69.436 30.2126 70.456 30.2268V30.2268Z" fill="#E0E0E0"/>
<path d="M84.439 33.202C81.7613 36.1559 75.6269 38.9752 70.0024 39.386C70.0237 41.4544 70.1795 43.5229 70.4558 45.5771C70.6825 45.9101 84.269 43.7212 88.4412 29.8372C89.1638 27.2517 89.4471 24.567 89.27 21.8893C88.8663 26.0687 87.1733 30.0214 84.439 33.202V33.202Z" fill="#CCCCCC"/>
<path d="M75.025 34.3636C75.0179 32.5573 74.9117 30.7581 74.6921 28.9659C73.2754 17.3841 66.7301 7.32527 57.6063 2.69963C53.4803 0.559973 48.8226 -0.338096 44.1969 0.114089C39.4562 0.615991 34.8961 2.20866 30.8737 4.76734C26.8513 7.32601 23.476 10.7812 21.012 14.8623C8.44561 35.8795 16.4927 61.3028 18.6178 65.6239C29.4841 87.7037 47.0374 89.5879 55.892 88.8725C65.5117 88.0933 76.7393 84.1902 78.3402 79.7983C78.7156 78.7641 78.666 77.6236 78.1985 76.6248C77.8994 76.0018 77.4017 75.4959 76.7835 75.1869C76.1654 74.8778 75.462 74.7831 74.7842 74.9177L74.0758 74.9956H73.8916C71.214 74.9956 70.0381 74.2872 69.2235 72.2967C67.9839 69.272 69.0039 64.8305 70.0381 61.3028C72.1632 54.0633 75.0746 44.1391 75.025 34.3636Z" fill="#E0E0E0"/>
<path d="M78.1913 76.6248C77.8922 76.0018 77.3944 75.496 76.7763 75.1869C76.1582 74.8778 75.4548 74.7831 74.777 74.9177L74.0686 74.9956H73.8844C71.2068 74.9956 70.0309 74.2872 69.2163 72.2967C67.9766 69.272 68.9967 64.8305 70.0309 61.3029C72.156 54.0492 75.0603 44.125 74.9895 34.3849C74.9824 32.5786 74.8761 30.7793 74.6565 28.9872C74.3094 26.1324 73.6365 23.3202 72.6589 20.6143C72.921 34.2149 70.3567 51.577 58.6474 63.6192C49.297 73.2388 33.3587 78.842 26.9338 77.7866C30.6046 81.7061 35.1183 84.7402 40.1337 86.6595C45.1491 88.5788 50.5351 89.3331 55.8848 88.8654C65.5044 88.0862 76.732 84.1831 78.333 79.7912C78.521 79.2805 78.6053 78.7375 78.5809 78.1938C78.5566 77.6501 78.4242 77.1167 78.1913 76.6248V76.6248Z" fill="#CCCCCC"/>
<path d="M43.0422 37.3247C37.014 37.3601 30.9929 36.8501 25.0568 35.8088C24.7666 35.7588 24.4686 35.7792 24.1879 35.8684C23.9073 35.9575 23.6521 36.1127 23.4438 36.3209C23.2356 36.5292 23.0804 36.7843 22.9913 37.065C22.9022 37.3457 22.8817 37.6437 22.9317 37.9339C24.646 46.3209 32.8984 53.2063 43.0635 53.2063C54.1778 53.2063 61.6652 46.1226 63.2165 37.9055C63.2682 37.615 63.249 37.3164 63.1604 37.0349C63.0719 36.7534 62.9168 36.4975 62.7081 36.2889C62.4995 36.0802 62.2435 35.9251 61.9621 35.8365C61.6806 35.748 61.3819 35.7288 61.0914 35.7804C55.1341 36.8359 49.0917 37.353 43.0422 37.3247V37.3247Z" fill="url(#paint0_linear)"/>
<path d="M44.4662 39.719H42.3907C39.3801 39.719 36.4262 39.5702 33.5786 39.3364V52.2287C33.5857 57.1944 37.6021 61.2179 42.5678 61.225H44.282C49.2548 61.225 53.2783 57.2015 53.2854 52.2287V39.2727C50.4377 39.5348 47.4768 39.6835 44.4662 39.719V39.719Z" fill="url(#paint1_linear)"/>
<path opacity="0.3" d="M43.4175 50.8686C43.9913 50.8757 44.4588 50.4081 44.4659 49.8344V39.7189H42.3904V49.8131C42.3833 50.3869 42.8438 50.8615 43.4175 50.8686V50.8686Z" fill="#AB3F2E"/>
<path d="M52.6122 31.4594C57.1699 31.4594 60.8647 27.7646 60.8647 23.2069C60.8647 18.6492 57.1699 14.9544 52.6122 14.9544C48.0545 14.9544 44.3597 18.6492 44.3597 23.2069C44.3597 27.7646 48.0545 31.4594 52.6122 31.4594Z" fill="white"/>
<path d="M52.9663 26.8054C54.9224 26.8054 56.5082 25.1943 56.5082 23.2069C56.5082 21.2195 54.9224 19.6084 52.9663 19.6084C51.0102 19.6084 49.4245 21.2195 49.4245 23.2069C49.4245 25.1943 51.0102 26.8054 52.9663 26.8054Z" fill="#422B0D"/>
<path d="M38.4095 24.659L38.3386 24.5457C38.2607 24.4182 38.1757 24.2907 38.0836 24.1703C37.7719 23.7594 37.4319 23.3698 37.0636 23.0085C36.5677 22.5339 36.0364 22.0877 35.4839 21.6839C35.1793 21.4643 34.8606 21.2305 34.5276 21.018C34.1947 20.8055 33.8618 20.6072 33.4934 20.3876C33.1251 20.168 32.785 20.0121 32.445 19.835C32.105 19.658 31.7367 19.5092 31.3825 19.3534C30.7379 19.07 30.0791 18.8362 29.399 18.645C28.9032 18.5104 28.3932 18.4183 27.8831 18.3616H27.2669C26.6222 18.3404 26.091 18.8433 26.0626 19.4809C26.0414 19.998 26.3743 20.4655 26.8702 20.6284L26.9977 20.6709L27.4085 20.8055C27.6777 20.8976 28.0673 21.0393 28.549 21.2447C29.0307 21.4501 29.5832 21.7051 30.1782 21.9956L31.092 22.4702C31.4037 22.6331 31.7012 22.796 32.0413 22.9944L32.2325 23.1077L31.595 23.1715C31.3471 23.214 31.2337 23.2281 31 23.2777C30.7662 23.3273 30.5678 23.3627 30.3766 23.4123C29.9799 23.5115 29.5974 23.639 29.2149 23.7806C28.5278 24.0357 27.8761 24.3757 27.2739 24.7865C27.026 24.9565 26.7923 25.1478 26.5656 25.3461C26.3885 25.502 26.2185 25.672 26.0626 25.8491C25.928 25.9978 25.836 26.1253 25.7651 26.2103L25.6659 26.3449C25.2834 26.862 25.3897 27.5846 25.9068 27.9671C26.3176 28.2717 26.8843 28.2717 27.2952 27.9671L27.4227 27.875L27.5077 27.8113L27.7415 27.6412C28.039 27.4429 28.3507 27.2587 28.6765 27.1029C29.1582 26.8762 29.6611 26.685 30.1712 26.5291C30.4545 26.4441 30.7591 26.3733 31.0708 26.3024C31.2266 26.2599 31.3754 26.2387 31.5171 26.2103C31.6587 26.182 31.8996 26.1537 32.02 26.1324C32.6434 26.0474 33.2738 26.0049 33.9043 26.0049C34.4355 26.012 34.9739 26.0616 35.4981 26.1537C35.7248 26.1962 35.9302 26.2316 36.1002 26.2812C36.249 26.3166 36.3906 26.3591 36.5323 26.4087L36.674 26.4441L36.8227 26.5079L36.9432 26.5645C37.4248 26.77 37.9845 26.6354 38.3174 26.2316C38.4803 26.0333 38.5724 25.7782 38.5724 25.5232C38.6291 25.2257 38.5724 24.914 38.4095 24.659V24.659Z" fill="#422B0D"/>
<defs>
<linearGradient id="paint0_linear" x1="43.0748" y1="53.2417" x2="43.0748" y2="35.7882" gradientUnits="userSpaceOnUse">
<stop stop-color="#404040"/>
<stop offset="0.12" stop-color="#3E3A35"/>
<stop offset="0.44" stop-color="#392D1E"/>
<stop offset="0.74" stop-color="#362510"/>
<stop offset="1" stop-color="#35220B"/>
</linearGradient>
<linearGradient id="paint1_linear" x1="43.432" y1="61.225" x2="43.432" y2="39.2727" gradientUnits="userSpaceOnUse">
<stop stop-color="#FF4081"/>
<stop offset="0.28" stop-color="#FB3D80"/>
<stop offset="0.55" stop-color="#EF337D"/>
<stop offset="0.82" stop-color="#DB2378"/>
<stop offset="1" stop-color="#CA1573"/>
</linearGradient>
</defs>
</svg>
