<svg width="84" height="85" viewBox="0 0 84 85" fill="none" xmlns="http://www.w3.org/2000/svg">
<path d="M55.7539 24.3454C55.7539 24.3454 48.1402 26.3549 37.5436 42.2497C29.3598 54.522 28.5393 64.1381 21.6905 70.5837C18.207 73.8586 12.5889 76.1045 12.5889 76.1045C12.5889 76.1045 8.0902 76.0002 7.78427 76.2088C7.47833 76.4104 6.58138 78.6632 8.26403 81.4306C9.65466 83.7181 11.7754 84.2952 12.4915 84.3926C13.2077 84.4969 14.5358 81.4236 15.0503 81.0134C15.5648 80.6031 21.6071 78.2808 25.8972 73.5457C34.6929 63.8252 34.5538 55.3911 40.9368 44.287C47.9942 32.0147 56.6925 26.0767 56.6925 26.0767L55.7539 24.3454V24.3454Z" fill="#5B9821"/>
<path d="M82.3079 0.357107C82.0367 0.0581227 64.6887 0.322341 55.7817 8.36711C45.199 17.9207 48.0637 31.1455 48.0637 31.1455C48.0637 31.1455 60.4194 34.0728 69.7436 25.6317C80.6183 15.793 82.579 0.656091 82.3079 0.357107V0.357107Z" fill="#5B9821"/>
<path d="M47.3407 47.0126C47.9108 47.4576 48.7313 47.9791 49.9064 48.5631C56.5535 51.8867 64.8556 50.065 68.9232 48.4519C74.576 46.206 82.9754 39.4476 82.9754 38.933C82.9754 38.4185 79.1512 36.5829 73.7139 34.9628C68.2765 33.3427 61.0105 33.2662 55.4897 35.6234C50.4278 37.7858 48.0707 41.5891 46.7705 43.8698C46.7705 43.8698 44.7541 44.1896 43.2939 44.4399C40.7213 44.878 38.7396 45.761 38.7396 45.761L36.758 49.8773C36.758 49.8773 40.7978 48.0416 42.8559 47.5966C44.914 47.1516 47.3407 47.0126 47.3407 47.0126V47.0126Z" fill="#5B9821"/>
<path d="M34.7624 4.07008C34.1158 4.20219 31.0564 8.97898 29.1791 13.5472C27.698 17.142 26.217 26.327 28.8662 31.9869C31.5153 37.6467 34.5816 38.7175 34.5816 38.7175C34.5816 38.7175 34.9571 40.3654 34.9154 42.5765C34.8945 43.828 34.7694 47.2768 34.7694 47.2768L37.794 45.9627C37.794 45.9627 37.9956 43.0702 37.9817 41.6656C37.9609 40.1846 37.7801 38.3142 37.7801 38.3142C37.7801 38.3142 42.7794 33.6348 43.1479 26.3687C43.4399 20.6394 42.828 15.3202 39.6713 9.58391C37.196 5.11305 35.1309 4.00055 34.7624 4.07008V4.07008Z" fill="#5B9821"/>
<path d="M1.03282 15.348C0.281886 16.2033 1.9854 18.3588 2.13837 23.212C2.25657 27.1823 2.94493 40.6296 6.91517 47.5341C10.8854 54.4385 16.3923 56.1351 18.1584 56.7191C19.9245 57.3102 23.7417 57.3797 23.7417 57.3797C23.7417 57.3797 25.3618 58.7773 25.9459 60.7589C26.5369 62.7406 27.1209 65.6817 27.1209 65.6817L29.9161 61.5655C29.9161 61.5655 29.1095 58.3323 28.296 56.8652C27.4895 55.3981 27.1905 54.8835 27.1905 54.8835C27.1905 54.8835 28.9774 43.7655 25.9389 34.6013C22.3442 23.7266 16.1698 19.6103 10.4404 17.1837C4.71103 14.757 1.54735 14.764 1.03282 15.348Z" fill="#5B9821"/>
<path d="M31.9742 62.671C31.9742 62.671 33.2883 61.8714 35.6385 61.8158C37.8009 61.7671 39.1429 62.1704 39.1429 62.1704C39.1429 62.1704 43.1826 57.5327 47.7022 56.2046C51.9644 54.9531 57.5895 53.8336 67.4977 57.9429C77.4198 62.0591 83.1214 66.0502 83.0519 67.3018C82.9754 68.5534 73.2271 73.0173 69.1873 74.4079C65.1475 75.8055 55.879 78.7397 47.1876 75.3813C40.2832 72.7113 38.7396 66.3423 38.7396 66.3423C38.7396 66.3423 37.1404 65.4592 35.3047 65.5635C31.9464 65.7443 29.1165 68.2544 29.1165 68.2544L31.9742 62.671V62.671Z" fill="#5B9821"/>
<path d="M51.2135 24.9225C52.3051 25.597 55.0377 18.7481 57.6799 15.5914C60.3221 12.4347 65.2519 9.20148 64.7373 7.8039C64.2228 6.40633 58.4169 8.39492 54.4467 13.5333C50.4834 18.6786 50.2609 24.3384 51.2135 24.9225Z" fill="#8DC02C"/>
<path d="M51.9575 42.1732C52.7501 43.2648 56.3866 40.6644 60.044 39.823C63.8056 38.9539 67.8315 40.1776 67.6855 38.1334C67.5464 36.2005 62.1716 36.0058 58.6464 36.9583C55.1212 37.9109 51.0049 40.8451 51.9575 42.1732V42.1732Z" fill="#8DC02C"/>
<path d="M32.1202 31.7783C33.4622 31.7227 33.0033 27.5925 33.0728 23.6918C33.1423 19.7911 33.8098 13.9157 32.3358 13.8462C30.8687 13.7697 29.631 17.6495 29.5406 22.2942C29.4711 26.1184 30.3541 31.8478 32.1202 31.7783Z" fill="#8DC02C"/>
<path d="M5.4411 24.4636C4.55805 24.7556 5.18384 26.8138 5.2186 27.7733C5.4411 34.0937 7.56876 43.8698 11.0245 48.132C13.7084 51.4417 16.7538 53.8614 18.812 52.3943C20.8701 50.9272 16.9555 47.7566 14.9877 44.6068C11.831 39.538 9.84243 33.0716 8.81337 29.9079C7.7843 26.7442 7.1029 23.9073 5.4411 24.4636V24.4636Z" fill="#8DC02C"/>
<path d="M43.871 61.9966C44.0031 63.9226 48.1889 62.9144 52.625 62.4763C57.0611 62.0383 60.7115 61.4264 60.5376 59.7994C60.3777 58.2836 55.4201 58.1237 51.5055 58.4018C47.5909 58.6799 43.7528 60.2791 43.871 61.9966Z" fill="#8DC02D"/>
</svg>
