<svg width="79" height="89" viewBox="0 0 79 89" fill="none" xmlns="http://www.w3.org/2000/svg">
<path d="M43.4361 34.5522L43.1406 20.9367C43.1406 20.9367 50.2402 17.1837 51.5995 14.7089C52.9589 12.234 52.3974 8.0821 50.8829 7.92696C49.3684 7.77182 42.8229 12.559 42.2689 11.9976C41.7074 11.4361 44.9801 7.44676 44.825 5.93228C44.6625 4.4178 39.794 0.709183 39.794 0.709183L34.2902 6.96656C34.2902 6.96656 35.8859 11.9163 35.6495 12.3965C35.4131 12.8767 27.9072 8.24463 26.3115 8.5623C24.7157 8.87997 25.2624 12.1232 25.8165 13.645C26.3779 15.1595 36.6025 19.895 36.6025 19.895L36.1592 34.7591C36.1592 34.7591 34.2902 34.7295 33.81 34.9733C33.3298 35.2097 32.1847 37.1305 32.1847 37.1305C32.1847 37.1305 21.4356 31.309 21.3543 30.1122C21.273 28.9154 21.5168 18.218 20.9554 17.1025C20.3939 15.9869 18.0003 14.6867 16.8035 14.6867C15.6067 14.6867 14.8088 26.5144 14.0922 26.5144C13.3756 26.5144 10.6569 19.57 9.85906 19.57C9.06119 19.57 2.87769 20.6042 2.87769 20.6042L5.23437 30.0235L12.5777 31.538L3.58691 41.7035C3.58691 41.7035 5.78844 43.8459 7.86439 43.3657C9.94033 42.8855 15.9244 36.9015 16.5597 36.9015C17.195 36.9015 28.0549 43.1293 28.0549 43.1293C28.0549 43.1293 27.5747 44.2449 27.8924 44.8876C28.2101 45.5229 28.7716 46.3208 28.7716 46.3208C28.7716 46.3208 18.0003 52.8663 17.2763 52.7038C16.5523 52.5412 9.2976 47.3551 7.22166 47.3551C5.14571 47.3551 3.86764 50.0664 3.86764 50.0664L12.4891 57.3285L5.22698 60.9189L2.11676 67.3831C2.11676 67.3831 9.14246 69.858 10.0955 69.6142C11.0485 69.3704 13.5307 63.4676 14.0036 63.3125C14.4838 63.15 14.6611 64.6571 14.6611 64.6571C14.6611 64.6571 17.195 72.5767 18.1554 72.3329C19.1158 72.0891 21.5095 70.5746 21.8271 69.3778C22.1448 68.181 21.3543 58.6878 21.3543 58.6878L32.687 52.5338C32.687 52.5338 33.5883 53.9966 34.2015 54.4399C34.6817 54.7871 37.0679 55.0161 37.0679 55.0161L36.7503 67.3831C36.7503 67.3831 24.93 72.4806 24.531 73.9138C24.1321 75.347 24.2207 78.5533 25.3437 78.9522C26.4592 79.3512 35.1767 75.3618 35.5756 75.6795C35.9746 75.9972 35.4057 81.8999 35.4057 81.8999C35.4057 81.8999 40.0895 88.5193 41.1238 87.884C42.158 87.2486 45.7854 83.1854 45.815 82.4318C45.8815 81.006 42.328 76.0932 42.3945 75.8051C42.5348 75.1771 49.7674 80.3854 51.0454 80.2229C52.3235 80.0604 53.2765 78.7084 53.2765 77.1866C53.2765 75.6721 43.5396 68.4913 43.5396 68.4913L43.3844 54.7723C43.3844 54.7723 45.2683 54.6689 45.911 54.3512C46.5463 54.0336 47.817 51.145 47.817 51.145L59.4231 58.9242C59.4231 58.9242 58.9429 72.0152 60.1397 72.8131C61.3365 73.6109 63.4937 74.0911 64.2916 73.6922C65.0894 73.2933 65.1707 62.1231 65.1707 62.1231L70.2017 66.6739C70.2017 66.6739 77.4269 66.0312 77.4269 65.0708C77.4269 64.1104 75.9789 58.6878 75.3953 58.215C74.3536 57.3728 69.7585 57.7865 69.2192 57.4984C68.7907 57.2694 77.6264 53.7454 77.6264 52.3122C77.6264 50.879 74.7378 48.611 73.9399 48.5297C73.142 48.4485 62.7032 53.1101 62.7032 53.1101L50.5726 45.9293C50.5726 45.9293 51.208 44.8137 51.208 44.2522C51.208 43.6908 50.4175 42.7525 50.4175 42.7525L62.8584 35.9559C62.8584 35.9559 73.7921 39.864 74.8264 39.3911C75.8607 38.9109 76.7398 38.0318 76.7398 37.1601C76.7398 36.2883 67.5052 32.0404 68.1997 31.6562C68.7316 31.3607 73.866 31.9739 74.6639 31.6562C75.4618 31.3386 78.0031 24.8669 77.9219 24.5493C77.8406 24.2316 69.2339 22.0818 69.2339 22.0818L65.3997 26.6326C65.3997 26.6326 66.0351 18.0112 65.0821 17.0581C64.129 16.1051 61.5507 16.5779 60.5165 17.2946C59.4822 18.0112 58.8616 30.7032 58.8616 30.7032L47.1595 37.0492C47.1595 37.0492 46.0661 35.291 45.4234 34.9659C44.7955 34.6187 43.4361 34.5522 43.4361 34.5522V34.5522Z" fill="#95C7EC"/>
<path d="M48.3192 38.6302L62.0308 31.479L61.8239 16.7257C61.8239 16.7257 59.6963 17.0877 58.6546 18.4766C57.6129 19.8655 57.9602 29.1962 57.9602 29.1962L46.0955 35.6456L48.3192 38.6302V38.6302Z" fill="#AFE3FF"/>
<path d="M65.3403 29.6542C65.3403 29.6542 69.832 24.0691 70.6964 23.7884C72.1444 23.3156 77.7369 25.2807 77.7369 25.2807C77.7369 25.2807 78.3574 23.7367 78.1063 23.1383C77.8551 22.5399 70.9771 19.4666 69.3297 20.0502C68.0442 20.5083 65.429 25.4728 65.429 25.4728L65.3403 29.6542V29.6542Z" fill="#AFE3FF"/>
<path d="M64.9564 34.7074C64.6609 34.6556 62.2673 36.2218 62.2673 36.2218C62.2673 36.2218 69.3742 40.5289 71.4576 40.6249C74.0285 40.7505 75.7276 38.874 75.7276 38.874C75.7276 38.874 73.8881 38.9257 72.5509 38.4307C70.3716 37.6181 64.9564 34.7074 64.9564 34.7074Z" fill="#AFE3FF"/>
<path d="M48.8733 49.0025L47.1889 52.4304C47.1889 52.4304 57.3174 58.7321 57.3618 59.035C57.4135 59.3305 57.1106 70.2495 58.1596 71.4907C59.2013 72.7318 61.1886 73.3745 61.1886 73.3745C61.1886 73.3745 61.787 57.2915 61.7353 57.0403C61.6762 56.7892 48.8733 49.0025 48.8733 49.0025V49.0025Z" fill="#AFE3FF"/>
<path d="M61.7944 52.5412C61.7944 52.5412 68.9309 47.7097 70.8665 47.7097C72.802 47.7097 74.4421 48.6996 74.4421 48.6996L65.0006 54.4103L61.7944 52.5412Z" fill="#AFE3FF"/>
<path d="M65.5032 59.8033C65.252 60.4978 65.1264 63.0982 65.1264 63.0982C65.1264 63.0982 67.4461 68.5577 69.0788 69.1488C70.7189 69.7472 76.9689 67.4127 77.4712 66.8142C77.9662 66.2158 77.2348 63.7927 77.2348 63.7927C77.2348 63.7927 72.2925 65.7504 70.8149 65.4771C68.9237 65.1299 65.5032 59.8033 65.5032 59.8033V59.8033Z" fill="#AFE3FF"/>
<path d="M35.4571 37.7363C34.7405 38.4529 31.6155 43.0407 31.5564 43.9272C31.4973 44.8211 34.9769 50.7682 35.8117 51.241C36.6465 51.7139 43.3693 51.241 43.3693 51.241L46.8194 44.1562C46.8194 44.1562 43.783 37.6699 43.3102 37.5516C42.8374 37.4334 35.9373 37.2561 35.4571 37.7363V37.7363Z" fill="#AFE3FF"/>
<path d="M38.5231 13.5195C38.9959 13.6081 36.7723 6.90749 36.7723 6.90749L41.6925 2.26063C41.6925 2.26063 39.8603 0 38.9147 0C37.9617 0 32.7829 4.81678 32.7829 5.95448C32.7829 7.09218 35.6419 12.3965 35.6419 12.3965C35.6419 12.3965 37.6218 13.3496 38.5231 13.5195V13.5195Z" fill="#AFE3FF"/>
<path d="M25.2697 11.2071C25.2697 11.2071 25.277 14.5537 26.3483 15.7431C27.4195 16.9325 35.0436 20.6633 35.0436 20.6633L35.2356 34.7812L38.5527 34.7664V18.3362C38.5527 18.3362 31.9481 15.1817 30.6405 14.5906C29.3329 13.9922 26.2227 12.4556 25.2697 11.2071V11.2071Z" fill="#AFE3FF"/>
<path d="M21.1177 32.4394L31.1132 38.7485L32.7237 36.3105L21.3541 29.6468L21.1177 32.4394Z" fill="#AFE3FF"/>
<path d="M13.9887 26.5809C13.9887 26.5809 16.1015 28.6568 16.5596 28.6421C17.4461 28.6125 17.387 14.7901 17.387 14.7901C17.387 14.7901 15.6804 14.1474 14.7865 14.9822C13.8852 15.8096 13.9887 26.5809 13.9887 26.5809V26.5809Z" fill="#AFE3FF"/>
<path d="M12.91 29.9423C15.0303 30.4816 14.6314 31.9666 14.3359 32.4394C14.0403 32.9122 4.34031 42.3167 4.34031 42.3167C4.34031 42.3167 2.49339 41.3046 2.49339 40.2334C2.49339 39.1622 10.908 32.2399 10.4647 32.1365C10.1175 32.0626 4.09652 33.0747 2.78889 32.2547C1.9467 31.7302 -0.387815 22.9462 0.0554469 21.7642C0.410056 20.8112 3.4464 20.5304 3.4464 20.5304C3.4464 20.5304 4.51761 28.3835 5.35242 28.8046C6.17984 29.2257 11.2183 29.5139 12.91 29.9423Z" fill="#AFE3FF"/>
<path d="M28.5645 45.9588L16.7147 52.46L19.6919 54.8757L30.0421 48.212L28.5645 45.9588Z" fill="#AFE3FF"/>
<path d="M15.0523 56.9001C14.9636 57.9122 10.797 59.9512 10.4424 60.2541C10.0878 60.5496 6.18706 59.6409 5.94326 59.9955C5.70686 60.3501 3.46839 67.2354 3.04729 67.6418C2.98819 67.7009 0.616737 66.9621 0.439432 66.5705C0.0109463 65.6323 2.67052 58.2077 3.85993 57.1365C5.04935 56.0652 10.2872 57.432 10.4645 57.0774C10.6418 56.7227 3.62353 52.9107 3.08423 51.7213C2.55231 50.5319 4.81295 48.6258 4.81295 48.6258C4.81295 48.6258 15.1705 55.5259 15.0523 56.9001V56.9001Z" fill="#AFE3FF"/>
<path d="M16.5889 60.8302C16.1973 60.5569 14.1362 63.2977 14.1362 63.2977C14.1362 63.2977 14.8602 72.1555 15.5324 72.7244C16.2121 73.3006 18.1699 72.3255 18.1699 72.3255C18.1699 72.3255 17.1799 61.2439 16.5889 60.8302Z" fill="#AFE3FF"/>
<path d="M35.5827 54.7945C35.5827 54.7945 35.6935 65.8243 35.4571 66.238C35.2207 66.6517 26.2446 70.9144 24.9813 72.5471C24.1244 73.6552 24.346 76.5734 24.346 76.5734C24.346 76.5734 38.1314 68.8015 38.427 68.5651C38.7225 68.3287 38.4934 54.8314 38.4934 54.8314L35.5827 54.7945Z" fill="#AFE3FF"/>
<path d="M53.2614 77.4304C53.2614 77.4304 43.783 71.5572 43.6722 70.7667C43.5614 70.0131 43.5023 66.7478 43.5023 66.7478C43.5023 66.7478 51.8282 72.6062 52.663 73.9729C53.4978 75.3397 53.2614 77.4304 53.2614 77.4304Z" fill="#AFE3FF"/>
<path d="M36.4694 81.1169C36.6172 82.6609 42.0988 87.064 42.0988 87.064C42.0988 87.064 40.3627 88.9404 39.4688 88.9995C38.5749 89.0586 32.7165 83.4366 32.5983 82.491C32.4801 81.538 35.5755 75.5318 35.5755 75.5318C35.5755 75.5318 36.9644 74.8669 38.0135 74.6453C38.6783 74.4975 36.3291 79.6172 36.4694 81.1169V81.1169Z" fill="#AFE3FF"/>
<path d="M44.3002 43.3879C44.3002 43.3879 43.421 45.1388 42.9851 46.1287C42.5493 47.1187 42.0026 48.8105 42.0026 48.8105C42.0026 48.8105 37.895 49.1281 36.8016 49.0838C35.3758 49.0321 34.5558 51.603 36.6391 51.6547C38.7224 51.7064 43.7017 51.8172 44.1376 51.4922C44.5735 51.1671 47.8019 45.2496 47.8019 43.9346C47.8019 42.6196 44.9577 38.9553 43.916 37.9136C42.7044 36.702 40.5768 37.9136 41.7809 39.8861C42.9851 41.8586 44.3002 43.3879 44.3002 43.3879Z" fill="#FEFEFE"/>
<path d="M60.8711 19.1119C59.2015 19.0528 59.327 21.3134 59.3861 23.9287C59.4452 26.5439 59.6225 28.2727 60.9893 28.2727C62.6589 28.2727 62.356 24.6453 62.356 22.9757C62.356 21.3134 62.5998 19.171 60.8711 19.1119V19.1119Z" fill="#FEFEFE"/>
<path d="M38.9738 2.80731C39.9416 3.77509 38.6192 5.42255 38.0799 5.90275C37.548 6.37556 36.0557 7.32858 35.0436 6.37556C34.0314 5.42255 35.2209 4.05583 36.1739 3.33922C37.1269 2.62261 38.2572 2.0907 38.9738 2.80731V2.80731Z" fill="#FEFEFE"/>
<path d="M38.6117 17.8043C37.0677 17.627 37.1268 21.4317 37.1859 26.0785C37.2598 32.033 37.1859 34.8256 38.4344 34.7665C39.8603 34.7 39.4465 31.7301 39.4465 25.5392C39.4465 22.1409 39.8011 17.9373 38.6117 17.8043V17.8043Z" fill="#FEFEFE"/>
<path d="M2.9072 21.6682C0.890359 22.2961 1.77688 24.7636 2.3088 26.5514C2.64863 27.6891 3.68291 30.9323 5.58154 30.3635C7.48018 29.7946 6.35725 27.0907 5.93615 25.362C5.52983 23.6333 4.63592 21.1362 2.9072 21.6682Z" fill="#FEFEFE"/>
<path d="M60.0361 63.3864C58.8467 63.3864 58.7285 65.6471 58.7285 67.6713C58.7285 69.6955 58.7285 71.1805 60.0952 71.1805C61.462 71.1805 61.2256 68.2032 61.2256 67.132C61.2256 66.0608 61.4103 63.3864 60.0361 63.3864Z" fill="#FEFEFE"/>
<path d="M38.4937 54.7575C37.4816 54.8019 37.3634 57.0773 37.3634 61.5395C37.3634 66.0016 37.1196 68.639 38.6119 68.5651C39.8014 68.506 39.5649 64.0439 39.5649 61.0075C39.5649 57.9712 39.9269 54.6984 38.4937 54.7575Z" fill="#FEFEFE"/>
<path d="M19.3373 54.8019C19.9357 55.4963 22.9942 53.5534 25.1957 52.3418C27.8405 50.8864 30.7734 49.4901 30.1528 48.2564C29.5323 47.0226 26.4368 49.2094 24.2944 50.3249C22.152 51.4479 18.3251 53.6272 19.3373 54.8019Z" fill="#FEFEFE"/>
<path d="M10.1025 60.5864C9.45977 61.0666 7.66456 60.7637 6.88885 61.3621C6.11314 61.9605 5.95062 63.9848 5.04193 64.3394C3.67521 64.8713 2.60399 63.9257 3.31321 62.0787C4.02982 60.2318 4.26622 58.9833 4.91634 58.5105C5.57384 58.0377 7.95268 58.1559 8.90569 58.1559C10.5753 58.1485 11.0555 59.8698 10.1025 60.5864V60.5864Z" fill="#FEFEFE"/>
</svg>
