<svg width="85" height="85" viewBox="0 0 85 85" fill="none" xmlns="http://www.w3.org/2000/svg">
<g opacity="0.75">
<path d="M75.0406 14.0617L54.807 42.1524C54.5289 42.6391 54.5289 43.1953 54.807 43.682L75.0406 73.0938C75.875 74.3453 74.3453 75.8055 73.0938 75.0406L43.2649 55.1547C42.7781 54.8766 42.2219 54.8766 41.7352 55.1547L11.9063 75.0406C10.6547 75.875 9.19454 74.3453 9.95939 73.0938L30.193 43.682C30.4711 43.1953 30.4711 42.6391 30.193 42.1524L9.95939 14.0617C9.12501 12.8102 10.6547 11.35 11.9063 12.1149L41.7352 30.6102C42.2219 30.8883 42.7781 30.8883 43.2649 30.6102L73.0938 12.1149C74.3453 11.35 75.8055 12.8102 75.0406 14.0617Z" fill="#AFACB9"/>
<path d="M43.8906 1.89376L49.7313 34.2258C49.8703 34.782 50.2875 35.1992 50.7742 35.2688L83.1063 41.1094C84.5664 41.457 84.5664 43.543 83.1063 43.8211L50.7047 49.6617C50.1485 49.8008 49.7313 50.218 49.6617 50.7047L43.8906 83.1063C43.6125 84.5664 41.457 84.5664 41.1789 83.1063L35.3383 50.7047C35.1992 50.1485 34.782 49.7313 34.2953 49.6617L1.89376 43.8906C0.433606 43.6125 0.433606 41.457 1.89376 41.1789L34.2258 35.3383C34.782 35.1992 35.1992 34.782 35.2688 34.2953L41.1094 1.89376C41.457 0.433606 43.543 0.433606 43.8906 1.89376Z" fill="#AFACB9"/>
<path d="M34.6082 37.6467C33.0368 38.648 30.2277 38.648 30.2277 39.8578C30.2277 40.7478 31.8339 40.7478 33.5444 40.7478C35.971 40.7131 38.0013 40.4975 38.9956 39.677C39.9969 38.8566 40.3167 37.5007 40.421 34.7612C40.5253 31.4793 40.275 30.9092 39.4615 30.9092C38.3838 30.9092 37.7093 35.7207 34.6082 37.6467Z" fill="#AFACB9"/>
</g>
</svg>
