<svg width="85" height="85" viewBox="0 0 85 85" fill="none" xmlns="http://www.w3.org/2000/svg">
<path d="M8.81909 81.8477C8.65917 81.5627 8.49229 81.2845 8.38104 80.9925C7.82479 79.581 7.76917 78.538 6.36463 77.954C5.65542 77.655 4.09792 77.203 3.36088 76.9805C2.04674 76.5912 0.962056 75.4926 0.600494 74.1645C0.238931 72.8365 0.6144 71.3416 1.55307 70.3403C2.99932 68.7967 5.33557 68.6298 7.43542 68.3934C13.1717 67.7329 17.3714 61.6559 21.2026 57.8247L28.8371 50.1902L34.8446 56.1977L27.4604 63.5819C23.6362 67.4061 17.0238 71.7101 17.2185 77.6967C17.2532 78.8162 17.4896 79.9704 17.135 81.0342C16.6553 82.4805 15.1951 83.3774 13.7558 83.885C13.0049 84.1492 12.1914 84.3439 11.4126 84.177C10.2375 83.9198 9.43096 82.9324 8.81909 81.8477V81.8477Z" fill="#C8DEE9"/>
<path d="M8.04032 74.8529C9.54915 75.0128 9.65345 76.8902 9.27798 78.5798C9.14587 79.1708 8.83298 79.8035 8.3254 80.026C7.85954 80.2277 7.80392 78.9344 6.79572 78.2113C6.46892 77.9749 3.91017 77.4881 2.38048 76.5495C1.94939 76.2852 2.04673 75.6386 2.54736 75.5343C4.23001 75.1866 7.36587 74.7764 8.04032 74.8529Z" fill="#8ABFD1"/>
<path d="M15.9738 63.3872C15.9738 63.3872 15.9738 63.3941 15.9738 63.3872C16.1407 63.2203 18.025 63.3316 18.8176 64.7361C19.3322 65.647 19.5825 66.7177 19.4573 67.7399C19.2835 69.1374 18.6647 70.4307 18.1015 71.7101C16.9403 74.3453 17.3019 75.9932 17.3297 76.0975C18.2058 70.9244 23.9908 67.0515 27.4673 63.5749L34.8515 56.1907L28.3156 50.065C27.37 51.0176 16.9681 62.3998 15.9738 63.3872V63.3872Z" fill="#8ABFD1"/>
<path d="M17.0655 61.044C17.0307 61.0787 16.9959 61.1205 16.9612 61.1552L16.9333 61.2456C16.9751 61.1761 17.0237 61.1135 17.0655 61.044V61.044Z" fill="#A5C7D3"/>
<path d="M76.1809 81.8477C76.3409 81.5627 76.4869 81.2776 76.619 80.9925C77.2726 79.6158 77.9888 78.093 79.3933 77.502C80.1025 77.203 80.9021 77.203 81.6391 76.9805C82.9533 76.5912 84.038 75.4926 84.3995 74.1645C84.7611 72.8365 84.3856 71.3416 83.447 70.3403C82.0007 68.7967 79.6645 68.6298 77.5646 68.3934C71.8283 67.7329 67.6286 61.6559 63.7974 57.8247L56.1629 50.1902L50.1554 56.1977L57.5396 63.5819C61.3638 67.4061 67.9763 71.7101 67.7816 77.6967C67.7468 78.8162 67.5104 79.9704 67.865 81.0342C68.3448 82.4805 69.8049 83.3774 71.2442 83.885C71.9952 84.1492 72.8087 84.3439 73.5874 84.177C74.7625 83.9198 75.5691 82.9324 76.1809 81.8477V81.8477Z" fill="#C8DEE9"/>
<path d="M69.0262 63.3872C69.0262 63.3872 69.0262 63.3941 69.0262 63.3872C68.8593 63.2203 66.975 63.3316 66.1823 64.7361C65.6678 65.647 65.4175 66.7177 65.5427 67.7399C65.7165 69.1374 66.3353 70.4307 66.8985 71.7101C68.0597 74.3453 67.6981 75.9932 67.6703 76.0975C66.7942 70.9244 61.0092 67.0515 57.5327 63.5749C57.1155 63.1647 50.1554 56.1977 50.1554 56.1977L56.6913 50.072C57.63 51.0176 68.0319 62.3999 69.0262 63.3872V63.3872Z" fill="#8ABFD1"/>
<path d="M67.9345 61.044C67.9693 61.0787 68.004 61.1205 68.0388 61.1552L68.0666 61.2456C68.0249 61.1761 67.9762 61.1135 67.9345 61.044V61.044Z" fill="#A5C7D3"/>
<path d="M77.0709 74.8529C75.5621 75.0128 75.4578 76.8902 75.8333 78.5798C75.9654 79.1708 76.2783 79.8035 76.7859 80.026C77.2517 80.2277 77.3073 78.9344 78.3155 78.2113C78.6423 77.9749 81.2011 77.4881 82.7308 76.5495C83.1619 76.2852 83.0645 75.6386 82.5639 75.5343C80.8812 75.1866 77.7454 74.7764 77.0709 74.8529Z" fill="#8ABFD1"/>
<path d="M8.81909 3.15226C8.65917 3.43734 8.51315 3.72242 8.38104 4.00749C7.72745 5.38421 7.01127 6.90695 5.60674 7.49796C4.89752 7.79695 4.09792 7.79695 3.36088 8.01945C2.04674 8.40882 0.962056 9.50741 0.600494 10.8355C0.238931 12.1566 0.6144 13.6584 1.55307 14.6597C2.99932 16.2033 5.33557 16.3702 7.43542 16.6066C13.1717 17.2671 17.3714 23.3441 21.2026 27.1753L28.8371 34.8098L34.8446 28.8023L27.4604 21.4181C23.6362 17.5939 17.0238 13.2899 17.2185 7.30327C17.2532 6.18382 17.4896 5.0296 17.135 3.96577C16.6553 2.51952 15.1951 1.62257 13.7558 1.11499C13.0049 0.850774 12.1914 0.656087 11.4126 0.822962C10.2375 1.08023 9.43096 2.06757 8.81909 3.15226V3.15226Z" fill="#C8DEE9"/>
<path d="M17.0655 23.956C17.0308 23.9212 16.996 23.8795 16.9612 23.8448L16.9334 23.7544C16.9751 23.8239 17.0238 23.8865 17.0655 23.956V23.956Z" fill="#A5C7D3"/>
<path d="M3.48605 13.6724C6.91394 13.7419 7.76222 13.1509 8.64527 12.831C11.4821 11.8159 12.24 13.7002 11.4474 15.202C10.4739 17.0516 6.54543 16.9542 3.64597 15.9113C3.02715 15.6888 1.42097 14.9726 1.22629 14.2147C0.920348 13.0257 2.99238 13.6584 3.48605 13.6724V13.6724Z" fill="#8ABFD1"/>
<path d="M34.8446 28.8023C34.8446 28.8023 25.0477 19.6033 22.9617 17.3644C18.7412 17.7886 16.4536 20.4516 16.099 21.7866C18.3379 23.8656 26.2923 32.265 28.8371 34.8098L34.8446 28.8023Z" fill="#8ABFD1"/>
<path d="M76.1809 3.15226C76.3409 3.43734 76.4869 3.72242 76.619 4.00749C77.2726 5.38421 77.9888 6.90695 79.3933 7.49796C80.1025 7.79695 80.9021 7.79695 81.6391 8.01945C82.9533 8.40882 84.038 9.50741 84.3995 10.8355C84.7611 12.1566 84.3856 13.6584 83.447 14.6597C82.0007 16.2033 79.6645 16.3702 77.5646 16.6066C71.8283 17.2671 67.6286 23.3441 63.7974 27.1753L56.1629 34.8098L50.1554 28.8023L57.5396 21.4181C61.3638 17.5939 67.9763 13.2899 67.7816 7.30327C67.7468 6.18382 67.5104 5.0296 67.865 3.96577C68.3448 2.51952 69.8049 1.62257 71.2442 1.11499C71.9952 0.850774 72.8087 0.656087 73.5874 0.822962C74.7625 1.08023 75.5691 2.06757 76.1809 3.15226V3.15226Z" fill="#C8DEE9"/>
<path d="M67.9345 23.956C67.9693 23.9212 68.004 23.8795 68.0388 23.8448L68.0666 23.7544C68.0249 23.8239 67.9762 23.8865 67.9345 23.956V23.956Z" fill="#A5C7D3"/>
<path d="M81.514 13.5958C78.0861 13.6654 77.2378 13.0744 76.3547 12.7545C73.5179 11.7394 72.76 13.6237 73.5526 15.1255C74.5261 16.9751 78.4546 16.8777 81.354 15.8347C81.9729 15.6122 83.579 14.8961 83.7737 14.1382C84.0797 12.9562 82.0076 13.5889 81.514 13.5958V13.5958Z" fill="#8ABFD1"/>
<path d="M50.1554 28.8023C50.1554 28.8023 60.8284 18.8176 62.9144 16.5787C68.4838 17.7886 69.4503 21.1887 69.4503 21.1887C69.4503 21.1887 58.7147 32.258 56.1698 34.8029C56.1629 34.8098 50.1554 28.8023 50.1554 28.8023V28.8023Z" fill="#8ABFD1"/>
<path d="M67.3296 45.615C67.6216 43.8559 68.8384 36.0336 67.7329 29.887C67.0237 25.9724 65.1046 22.9409 62.372 20.3543C57.1085 15.3689 49.9398 13.0327 43.091 12.831C43.0562 12.8241 43.0145 12.8241 42.9798 12.8241C42.945 12.8241 42.9033 12.8171 42.8685 12.8171C42.8059 12.8171 42.7434 12.8241 42.6877 12.8241C42.6252 12.8241 42.5626 12.8171 42.507 12.8171C42.4722 12.8171 42.4305 12.8241 42.3957 12.8241C42.3609 12.8241 42.3192 12.8171 42.2844 12.831C35.4356 13.0327 28.2669 15.3689 23.0034 20.3543C20.2778 22.9409 18.3518 25.9724 17.6426 29.887C16.5301 36.0336 17.7538 43.8559 18.0459 45.615C18.4422 48.0138 17.3923 50.663 17.1837 53.0548C16.9612 55.6553 18.1849 57.6717 20.3821 59.0971C22.2177 60.2861 24.3454 60.9188 26.327 61.8436C28.6841 62.9422 26.5426 66.9055 27.4117 68.908C27.8498 69.9231 28.8093 70.6115 29.7966 71.1052C31.0552 71.7309 32.5084 72.1273 33.8712 71.7796C33.6626 71.8352 34.2605 73.0312 35.0532 73.5179C35.7694 73.9629 36.6663 74.4148 37.4937 74.5956C39.1486 74.9572 40.7826 74.3523 41.7977 73.8238C42.354 73.5388 43.0076 73.5388 43.5569 73.8238C44.579 74.3523 46.213 74.9641 47.8609 74.5956C49.1055 74.3245 50.211 73.5874 51.0037 72.6209C51.3722 72.169 51.9493 71.9187 52.5334 71.9604C54.2647 72.0716 56.9138 71.3694 58.068 68.755C58.7077 67.3018 58.0611 65.5913 58.4922 64.0686C59.2153 61.489 61.7532 60.8493 63.7974 59.6534C66.5022 58.0611 68.1014 56.288 68.1779 53.778C68.2822 51.108 66.9889 47.6731 67.3296 45.615V45.615Z" fill="#E1E7EA"/>
<path d="M36.4843 45.6164C37.491 41.859 35.5377 38.0709 32.1215 37.1556C28.7053 36.2403 25.1197 38.5443 24.113 42.3018C23.1062 46.0593 25.0595 49.8474 28.4758 50.7627C31.892 51.678 35.4775 49.3739 36.4843 45.6164Z" fill="#424242"/>
<path d="M56.9081 50.7653C60.3243 49.85 62.2776 46.062 61.2708 42.3045C60.2641 38.547 56.6786 36.2429 53.2623 37.1583C49.8461 38.0736 47.8928 41.8616 48.8995 45.6191C49.9063 49.3766 53.4918 51.6807 56.9081 50.7653Z" fill="#424242"/>
<path d="M38.5784 55.5162C38.5784 53.2426 40.421 47.6175 42.6947 47.6175C44.9684 47.6175 46.8109 53.2426 46.8109 55.5162C46.8109 60.1331 42.6947 56.9903 42.6947 56.9903C42.6947 56.9903 38.5784 60.4043 38.5784 55.5162Z" fill="#424242"/>
<path d="M32.7031 71.9117C32.6474 71.4459 32.7656 66.7038 32.7656 65.8625C32.7656 65.2645 33.2454 64.7848 33.8434 64.7848C34.4413 64.7848 34.9211 65.2715 34.9211 65.8625C34.9211 66.6065 34.6291 71.9326 34.6291 71.9326C34.6291 71.9326 33.6556 72.1829 32.7031 71.9117V71.9117Z" fill="#8ABFD1"/>
<path d="M41.6239 73.9768C41.6239 73.9768 41.6309 73.2467 41.6309 72.8712V65.8625C41.6309 65.2645 42.1106 64.7848 42.7086 64.7848C43.3066 64.7848 43.7863 65.2715 43.7863 65.8625V69.6589C43.7863 70.4307 43.7446 73.9768 43.7446 73.9768C42.0759 73.351 41.6239 73.9768 41.6239 73.9768V73.9768Z" fill="#8ABFD1"/>
<path d="M50.6352 72.5236C50.6352 72.5236 50.5309 66.7664 50.5309 65.8625C50.5309 65.2645 51.0176 64.7848 51.6086 64.7848C52.2066 64.7848 52.6864 65.2715 52.6864 65.8625C52.6864 66.829 52.6794 71.9673 52.6794 71.9673C52.6794 71.9673 52.1092 71.9395 51.6712 72.016C51.4835 72.0369 50.6352 72.5236 50.6352 72.5236V72.5236Z" fill="#8ABFD1"/>
<path d="M42.6877 71.2651C42.1593 71.3068 41.6309 71.3694 41.6239 71.4319C41.464 73.2606 38.8079 73.3788 37.452 73.0868C36.6663 72.913 35.7833 72.6487 35.3035 71.9743C34.8516 71.3485 34.6499 70.5559 34.6569 69.791C34.6569 69.7493 32.6961 69.5407 32.6961 69.5407C32.6961 69.5407 32.564 70.6184 31.2359 70.5141C29.0527 70.3403 28.6216 69.638 28.1557 68.8662C27.5716 67.8928 27.3631 65.7373 27.3631 65.7373C26.4452 69.6172 28.3921 71.0495 29.3586 71.578C31.1664 72.5653 33.447 72.0438 33.447 72.0438C33.447 72.0438 34.3579 73.497 35.1436 73.9837C35.8598 74.4287 36.6177 74.6512 37.4451 74.832C39.0999 75.1936 40.7339 74.5887 41.7491 74.0602C42.0411 73.9073 42.3609 73.8447 42.6738 73.8516V71.2651H42.6877Z" fill="#8ABFD1"/>
<path d="M42.6877 71.2651C43.2162 71.3068 43.7446 71.3694 43.7516 71.4319C43.9115 73.2606 46.5676 73.3788 47.9235 73.0868C48.7092 72.913 49.5922 72.6487 50.072 71.9743C50.5239 71.3485 50.7256 70.5559 50.7186 69.791C50.7186 69.7493 52.6794 69.5407 52.6794 69.5407C52.6794 69.5407 52.8115 70.6184 54.1395 70.5141C56.3228 70.3403 56.7539 69.638 57.2198 68.8662C57.8038 67.8928 58.3601 65.7373 58.3601 65.7373C59.0137 69.6937 56.9834 71.0495 56.0169 71.578C54.2091 72.5653 51.9284 72.0438 51.9284 72.0438C51.9284 72.0438 51.0176 73.497 50.2319 73.9837C49.5157 74.4287 48.7578 74.6512 47.9304 74.832C46.2756 75.1936 44.6416 74.5887 43.6264 74.0602C43.3344 73.9073 43.0145 73.8447 42.7017 73.8516V71.2651H42.6877Z" fill="#8ABFD1"/>
</svg>
