<svg width="85" height="59" viewBox="0 0 85 59" fill="none" xmlns="http://www.w3.org/2000/svg">
<path d="M42.7225 56.8397C19.061 56.8397 5.48157 33.804 3.13141 29.4583C5.26602 25.0987 17.6704 2.16031 42.7225 2.16031C67.7746 2.16031 80.179 25.0917 82.3136 29.4583C79.9634 33.804 66.377 56.8397 42.7225 56.8397Z" fill="#FAFAFA"/>
<path d="M42.7225 3.85687C53.7154 3.85687 63.4706 8.32078 71.717 17.1304C76.327 22.0532 79.1778 27.0455 80.4015 29.4166C77.2656 34.9721 64.3745 55.1362 42.7225 55.1362C32.3763 55.1362 22.8157 50.6514 14.2912 41.807C9.50049 36.8355 6.38549 31.7876 5.04353 29.4166C6.26033 27.0455 9.11806 22.0462 13.728 17.1304C21.9744 8.32078 31.7296 3.85687 42.7225 3.85687ZM42.7225 0.463745C13.6863 0.463745 1.24017 29.5 1.24017 29.5C1.24017 29.5 15.3203 58.5362 42.7225 58.5362C70.1248 58.5362 84.1979 29.5 84.1979 29.5C84.1979 29.5 71.7518 0.463745 42.7225 0.463745Z" fill="#B0BEC5"/>
<path d="M42.7225 10.7266C61.4751 10.7266 74.3383 22.2062 80.0329 29.9937C80.7004 30.9045 81.4166 26.5241 80.8117 25.5715C75.3604 17.047 63.1438 2.68875 42.7294 2.68875C22.3151 2.68875 10.0845 17.0539 4.63326 25.5784C4.02138 26.531 4.84185 30.3274 5.61365 29.5C11.5516 23.124 23.9629 10.7266 42.7225 10.7266Z" fill="#B0BEC5"/>
<path d="M42.7225 50.3177C55.4525 50.3177 65.7721 39.998 65.7721 27.2681C65.7721 14.5381 55.4525 4.21844 42.7225 4.21844C29.9926 4.21844 19.6729 14.5381 19.6729 27.2681C19.6729 39.998 29.9926 50.3177 42.7225 50.3177Z" fill="#9C7A63"/>
<path d="M42.7225 10.7266C50.2805 10.7266 56.8791 12.59 62.4416 15.3295C58.4018 8.66843 51.0801 4.22539 42.7225 4.22539C34.1841 4.22539 26.7303 8.87703 22.7531 15.7745C28.3226 12.8403 34.9767 10.7266 42.7225 10.7266Z" fill="#806451"/>
<path d="M42.7225 37.9967C48.6478 37.9967 53.4512 33.1933 53.4512 27.268C53.4512 21.3428 48.6478 16.5394 42.7225 16.5394C36.7972 16.5394 31.9938 21.3428 31.9938 27.268C31.9938 33.1933 36.7972 37.9967 42.7225 37.9967Z" fill="#212121"/>
<path d="M59.7855 31.6485C62.75 31.6485 65.1533 29.2453 65.1533 26.2807C65.1533 23.3161 62.75 20.9129 59.7855 20.9129C56.8209 20.9129 54.4177 23.3161 54.4177 26.2807C54.4177 29.2453 56.8209 31.6485 59.7855 31.6485Z" fill="#D9BAA5"/>
<path d="M3.01318 31.732C2.65161 31.732 2.2831 31.6416 1.94239 31.4538C1.42458 31.1695 1.04075 30.6913 0.875192 30.1242C0.709631 29.5571 0.775863 28.9475 1.05935 28.4292C1.65036 27.3515 15.8556 0.470703 42.7225 0.470703C69.5893 0.470703 83.3774 26.8161 83.9476 27.873C84.5316 28.9577 84.1353 30.3066 83.0506 30.8976C81.9659 31.4816 80.617 31.0853 80.026 30.0006C79.9008 29.7642 66.8985 6.45734 42.7155 6.45734C18.5256 6.45734 5.09216 30.3344 4.96005 30.5777C4.76933 30.9274 4.48783 31.2192 4.1452 31.4223C3.80257 31.6255 3.41149 31.7324 3.01318 31.732V31.732Z" fill="#616161"/>
</svg>
