<svg width="79" height="81" viewBox="0 0 79 81" fill="none" xmlns="http://www.w3.org/2000/svg">
<path d="M2.20916 58.0927C1.84064 57.2235 1.48603 56.3544 1.13838 55.4852C-1.48295 48.8728 1.80588 42.907 4.74009 37.0664L8.99541 28.6114C9.85064 26.9079 11.1648 25.4755 12.7779 24.4743L25.0154 16.8815L37.1069 4.37977C37.8575 3.60089 38.8153 3.05319 39.8673 2.80141L48.0998 0.812813C52.0839 -0.139765 53.7944 0.0132043 55.0807 1.84188C59.5377 8.16922 62.5206 13.3771 66.4908 19.6836C68.6532 23.1184 73.6456 31.0102 73.9585 31.5317C74.918 33.1448 74.5286 34.4937 74.4938 36.3433C74.4104 40.6055 75.1613 44.8887 76.7188 48.8589C77.1847 50.0409 77.7201 51.2091 77.9635 52.4537C78.186 53.5731 77.887 60.6862 77.6575 63.092C77.4698 65.0458 72.8529 72.3396 71.1981 73.2227C69.3763 74.1961 55.8734 79.1606 52.8905 80.0089C49.9076 80.8572 36.9748 77.9021 30.2581 76.873C26.107 76.2403 21.9491 75.6006 17.7981 74.9679C14.1963 74.4186 10.6155 74.8358 8.59908 71.1993C6.22806 66.944 4.10041 62.5705 2.20916 58.0927V58.0927Z" fill="url(#paint0_linear)"/>
<path d="M17.7911 74.9609C21.9421 75.5937 26.1001 76.2334 30.2511 76.8661C32.4135 77.1999 35.2226 77.7283 38.136 78.2706C36.1752 75.9483 33.2479 73.1949 31.2871 70.8725C30.863 70.3719 30.4319 69.8504 30.2789 69.2107C30.119 68.5293 30.2998 67.827 30.4875 67.1526C31.0855 64.9415 31.2385 62.5427 31.8364 60.3316C28.1304 61.1938 19.592 62.8347 18.8897 62.6331C18.111 62.4106 17.4782 61.8474 16.8733 61.2981C12.472 57.2791 9.03018 53.2255 5.66487 48.3235C5.26854 47.7464 4.86526 47.1484 4.71925 46.4601C4.58018 45.8134 4.68448 45.1459 4.78878 44.4993C5.03909 42.8862 5.59534 38.4153 6.04034 34.4729L4.73315 37.0664C1.80589 42.907 -1.48294 48.8728 1.14534 55.4852C1.493 56.3613 1.84761 57.2305 2.21612 58.0927C4.10227 62.5694 6.23076 66.9401 8.59214 71.1854C10.6016 74.8288 14.1894 74.4117 17.7911 74.9609Z" fill="url(#paint1_linear)"/>
<path d="M55.1363 1.91837C54.2811 0.910163 52.6123 1.10485 50.8601 2.70407L44.5606 9.0036C44.1712 9.39298 43.9626 9.92837 43.9974 10.4777L44.6719 23.3409C44.6927 23.772 44.8526 24.1753 45.1308 24.5021C47.3697 27.1165 55.2823 39.6808 57.5769 39.6808C59.8644 39.6808 63.8625 30.7669 65.8997 30.8156C66.2474 30.8225 68.0622 30.9338 69.8352 31.4761C71.4901 31.9767 72.1367 29.7031 71.796 28.0899C70.0855 25.3782 67.784 21.7417 66.4908 19.6836C62.5344 13.4049 59.5585 8.21094 55.1363 1.91837V1.91837Z" fill="url(#paint2_linear)"/>
<path d="M25.822 27.2416C28.1374 26.894 35.8623 25.5798 37.3155 25.0097C40.1524 23.8902 42.6555 19.1204 44.3103 16.5547C44.3103 16.5547 44.8805 24.9193 44.3103 28.1873C43.914 30.4609 42.4191 42.3508 40.9172 45.2016L31.8364 60.3316L18.4934 46.9885C17.36 45.8552 16.6369 45.2572 16.2267 43.651C15.288 39.9798 13.5845 34.5633 13.5775 31.3718C13.5706 28.1803 22.1716 27.784 25.822 27.2416V27.2416Z" fill="url(#paint3_linear)"/>
<path d="M42.6972 9.42077C41.8072 8.35695 41.5569 6.84812 41.8628 5.49921C42.1201 4.37281 44.4563 2.19648 45.2142 1.50812L39.8673 2.8014C38.8164 3.05603 37.8593 3.6033 37.1069 4.37976L25.0154 16.8815C25.0154 16.8815 36.7244 12.0004 42.6972 9.42077Z" fill="url(#paint4_linear)"/>
<path d="M76.7119 48.8589C75.5445 45.8783 74.8274 42.7405 74.5842 39.5487C70.5931 42.2813 68.3612 45.8273 61.9365 46.6965C60.233 46.9259 57.5977 47.2458 55.9359 47.6838C53.8778 48.2262 51.9727 49.7489 48.8855 50.034C46.6883 50.2426 41.1466 50.0827 41.981 51.3203C42.8154 52.558 47.7869 55.0541 49.0245 56.0623C50.7837 57.4738 52.3134 59.1356 53.7805 60.8461C54.5453 61.743 55.6926 63.9194 57.0276 64.5104C57.3683 64.6634 57.7299 64.7051 58.0914 64.5938C58.7241 64.4061 59.2317 63.9472 59.7254 63.5091C64.512 59.2685 69.8926 55.7502 75.6967 53.0656C76.3156 52.7805 76.9831 52.4606 77.289 51.8488C77.4211 51.5776 77.4767 51.2091 77.4837 50.8127C77.2403 50.1591 76.9692 49.5125 76.7119 48.8589Z" fill="url(#paint5_linear)"/>
<path d="M77.9565 52.4537C77.8661 52.0017 77.734 51.5567 77.581 51.1187C77.4628 51.5289 77.2055 51.9809 76.6493 52.405C75.0501 53.6288 68.8826 55.5131 62.0964 61.458C57.6672 65.3378 57.6603 65.8593 56.7077 70.1355C55.1502 77.1373 52.6749 79.6821 52.2021 80.1132C52.4594 80.0854 52.6888 80.0506 52.8765 79.995C55.8664 79.1537 69.3624 74.1822 71.1841 73.2088C72.839 72.3257 77.4558 65.0319 77.6436 63.0781C77.88 60.6862 78.179 53.5731 77.9565 52.4537V52.4537Z" fill="url(#paint6_linear)"/>
<defs>
<linearGradient id="paint0_linear" x1="56.9205" y1="9.62938" x2="24.8889" y2="91.0115" gradientUnits="userSpaceOnUse">
<stop stop-color="#9E958E"/>
<stop offset="0.46" stop-color="#8E8884"/>
<stop offset="1" stop-color="#757575"/>
</linearGradient>
<linearGradient id="paint1_linear" x1="2.1598" y1="78.5328" x2="28.7986" y2="48.9118" gradientUnits="userSpaceOnUse">
<stop stop-color="#37474F"/>
<stop offset="0.612" stop-color="#42565F" stop-opacity="0.192"/>
<stop offset="0.757" stop-color="#455A64" stop-opacity="0"/>
</linearGradient>
<linearGradient id="paint2_linear" x1="65.2204" y1="41.3787" x2="47.9941" y2="3.16645" gradientUnits="userSpaceOnUse">
<stop stop-color="#9E958E"/>
<stop offset="0.442" stop-color="#AEA298"/>
<stop offset="1" stop-color="#C9B8A9"/>
</linearGradient>
<linearGradient id="paint3_linear" x1="22.0756" y1="67.6914" x2="29.0288" y2="29.9707" gradientUnits="userSpaceOnUse">
<stop stop-color="#4C5C64"/>
<stop offset="1" stop-color="#455A64" stop-opacity="0"/>
</linearGradient>
<linearGradient id="paint4_linear" x1="25.0168" y1="9.19549" x2="45.2156" y2="9.19549" gradientUnits="userSpaceOnUse">
<stop stop-color="#4C5C64"/>
<stop offset="1" stop-color="#455A64" stop-opacity="0"/>
</linearGradient>
<linearGradient id="paint5_linear" x1="56.6737" y1="48.2658" x2="80.5611" y2="58.1114" gradientUnits="userSpaceOnUse">
<stop stop-color="#9E958E"/>
<stop offset="0.25" stop-color="#AEA298"/>
<stop offset="0.566" stop-color="#C9B8A9"/>
</linearGradient>
<linearGradient id="paint6_linear" x1="68.7616" y1="80.7717" x2="63.8666" y2="61.4628" gradientUnits="userSpaceOnUse">
<stop stop-color="#37474F"/>
<stop offset="0.808" stop-color="#42565F" stop-opacity="0.192"/>
<stop offset="1" stop-color="#455A64" stop-opacity="0"/>
</linearGradient>
</defs>
</svg>
