<svg width="90" height="89" viewBox="0 0 90 89" fill="none" xmlns="http://www.w3.org/2000/svg">
<path d="M48.8777 1.70576L87.5822 40.2011C88.6364 41.2818 89.2195 42.7361 89.2038 44.2457C89.1881 45.7554 88.575 47.1973 87.4985 48.2558C87.4567 48.2977 87.4148 48.3395 87.373 48.3604L48.8777 87.2742C47.7656 88.3796 46.2613 89 44.6934 89C43.1254 89 41.6212 88.3796 40.5091 87.2742L2.01377 48.5697C0.9288 47.5016 0.300662 46.0542 0.261638 44.5322C0.222613 43.0103 0.77575 41.5326 1.80456 40.4103L40.5091 1.91497C41.0122 1.35153 41.6218 0.893045 42.3026 0.565853C42.9835 0.238661 43.7223 0.049206 44.4766 0.00838099C45.2308 -0.032444 45.9858 0.0761645 46.698 0.327959C47.4101 0.579754 48.0656 0.969776 48.6266 1.47562C48.7312 1.53839 48.794 1.62208 48.8777 1.70576Z" fill="#797C86"/>
<mask id="mask0" mask-type="alpha" maskUnits="userSpaceOnUse" x="0" y="0" width="90" height="89">
<path d="M48.8777 1.70576L87.5822 40.2011C88.6364 41.2818 89.2195 42.7361 89.2038 44.2457C89.1881 45.7554 88.575 47.1973 87.4985 48.2558C87.4567 48.2977 87.4148 48.3395 87.373 48.3604L48.8777 87.2742C47.7656 88.3796 46.2613 89 44.6934 89C43.1254 89 41.6212 88.3796 40.5091 87.2742L2.01377 48.5697C0.9288 47.5016 0.300662 46.0542 0.261638 44.5322C0.222613 43.0103 0.77575 41.5326 1.80456 40.4103L40.5091 1.91497C41.0122 1.35153 41.6218 0.893045 42.3026 0.565853C42.9835 0.238661 43.7223 0.049206 44.4766 0.00838099C45.2308 -0.032444 45.9858 0.0761645 46.698 0.327959C47.4101 0.579754 48.0656 0.969776 48.6266 1.47562C48.7312 1.53839 48.794 1.62208 48.8777 1.70576Z" fill="#797C86"/>
</mask>
<g mask="url(#mask0)">
<path opacity="0.85" fill-rule="evenodd" clip-rule="evenodd" d="M-2.01239 42.5735L-0.640748 -31.8808L109.531 -29.8512L108.159 44.6032L-2.01239 42.5735Z" fill="white"/>
</g>
<path d="M42.6016 7.14508L76.285 40.8285C78.1889 42.816 78.1261 45.9542 76.1595 47.879C76.1386 47.8999 76.1176 47.9209 76.0758 47.9418L42.6016 81.8344C40.6768 83.8638 37.4758 83.9265 35.4465 82.0018L35.2791 81.8344L1.59567 48.151C-0.433705 46.2681 -0.538309 43.1089 1.34462 41.0796L1.38646 41.0377L35.2791 7.3543C37.2666 5.304 40.5094 5.22031 42.6016 7.14508V7.14508Z" fill="#9EADAF"/>
<mask id="mask1" mask-type="alpha" maskUnits="userSpaceOnUse" x="0" y="5" width="78" height="79">
<path d="M42.6016 7.14508L76.285 40.8285C78.1889 42.816 78.1261 45.9542 76.1595 47.879C76.1386 47.8999 76.1176 47.9209 76.0758 47.9418L42.6016 81.8344C40.6768 83.8638 37.4758 83.9265 35.4465 82.0018L35.2791 81.8344L1.59567 48.151C-0.433705 46.2681 -0.538309 43.1089 1.34462 41.0796L1.38646 41.0377L35.2791 7.3543C37.2666 5.304 40.5094 5.22031 42.6016 7.14508V7.14508Z" fill="#4A595B"/>
</mask>
<g mask="url(#mask1)">
<path opacity="0.13" fill-rule="evenodd" clip-rule="evenodd" d="M39.1186 39.6607C25.0759 53.5749 13.1363 65.7044 9.66831 69.9309L-3.43702 59.1776C0.729555 54.0997 13.4748 41.2049 27.1867 27.6185C41.0982 13.8343 56.5387 -1.18154 66.514 -10.8041L78.2835 1.39686C68.3455 10.9835 52.9617 25.9443 39.1186 39.6607Z" fill="#5B5C60"/>
<path fill-rule="evenodd" clip-rule="evenodd" d="M49.6373 53.2014C35.5532 67.1566 23.7143 79.1905 20.3337 83.3105L3.95206 69.8689C8.20596 64.6846 21.0519 51.6941 34.7224 38.1487C48.6425 24.3561 64.0901 9.33331 74.0701 -0.293722L88.7819 14.9574C78.8485 24.5395 63.4718 39.4935 49.6373 53.2014Z" fill="white" fill-opacity="0.38"/>
<path fill-rule="evenodd" clip-rule="evenodd" d="M28.5749 26.1204C14.4908 40.0756 2.65189 52.1095 -0.728724 56.2295L-17.1104 42.7879C-12.8565 37.6036 -0.0105017 24.6131 13.66 11.0677C27.5801 -2.72493 43.0277 -17.7477 53.0076 -27.3747L67.7195 -12.1235C57.7861 -2.54145 42.4094 12.4125 28.5749 26.1204Z" fill="white" fill-opacity="0.37"/>
</g>
</svg>
