<svg width="70" height="89" viewBox="0 0 70 89" fill="none" xmlns="http://www.w3.org/2000/svg">
<path d="M13.8103 27.2424C13.3876 31.7516 13.0909 39.7318 15.7534 43.1286C15.7534 43.1286 14.5 34.3623 25.7361 23.3635C30.2602 18.9358 31.3059 12.9136 29.7262 8.39691C28.8288 5.8382 27.1898 3.72448 25.7658 2.24859C24.9351 1.38085 25.573 -0.0505419 26.7818 0.00137397C34.0946 0.327702 45.9462 2.35984 50.9821 14.9976C53.1922 20.5452 53.3554 26.2782 52.3022 32.1076C51.6347 35.8307 49.2614 44.1076 54.6755 45.1237C58.5395 45.8505 60.4085 42.78 61.2466 40.5699C61.5951 39.6503 62.804 39.4203 63.4567 40.1546C69.9833 47.5786 70.5395 56.3227 69.1897 63.8505C66.5791 78.4017 51.8424 88.9926 37.2021 88.9926C18.9129 88.9926 4.3542 78.5278 0.57917 59.586C-0.941223 51.9395 -0.1699 36.8097 11.6224 26.1299C12.4976 25.3289 13.929 26.0409 13.8103 27.2424Z" fill="url(#paint0_radial)"/>
<path d="M43.8843 54.4537C37.1427 45.7763 40.1612 35.8752 41.8151 31.9296C42.0376 31.4105 41.4443 30.921 40.9771 31.2399C38.0772 33.2127 32.1365 37.8554 29.3701 44.3894C25.6248 53.2225 25.8918 57.5464 28.1093 62.827C29.4443 66.0087 27.8943 66.6836 27.1155 66.8022C26.359 66.9209 25.6619 66.4166 25.1056 65.89C23.5054 64.3537 22.3651 62.4018 21.8127 60.2534C21.694 59.7936 21.0933 59.6675 20.8189 60.0458C18.7422 62.916 17.6668 67.5217 17.6149 70.7775C17.4517 80.8418 25.7657 89 35.8225 89C48.4974 89 57.731 74.9827 50.448 63.2646C48.3343 59.8529 46.3466 57.6206 43.8843 54.4537Z" fill="url(#paint1_radial)"/>
<defs>
<radialGradient id="paint0_radial" cx="0" cy="0" r="1" gradientUnits="userSpaceOnUse" gradientTransform="translate(33.5797 89.2232) rotate(-179.751) scale(52.3517 85.8987)">
<stop offset="0.314" stop-color="#FF9800"/>
<stop offset="0.662" stop-color="#FF6D00"/>
<stop offset="0.972" stop-color="#F44336"/>
</radialGradient>
<radialGradient id="paint1_radial" cx="0" cy="0" r="1" gradientUnits="userSpaceOnUse" gradientTransform="translate(36.5197 37.1274) rotate(90.5787) scale(54.776 41.223)">
<stop offset="0.214" stop-color="#FFF176"/>
<stop offset="0.328" stop-color="#FFF27D"/>
<stop offset="0.487" stop-color="#FFF48F"/>
<stop offset="0.672" stop-color="#FFF7AD"/>
<stop offset="0.793" stop-color="#FFF9C4"/>
<stop offset="0.822" stop-color="#FFF8BD" stop-opacity="0.804"/>
<stop offset="0.863" stop-color="#FFF6AB" stop-opacity="0.529"/>
<stop offset="0.91" stop-color="#FFF38D" stop-opacity="0.209"/>
<stop offset="0.941" stop-color="#FFF176" stop-opacity="0"/>
</radialGradient>
</defs>
</svg>
