<svg width="52" height="85" viewBox="0 0 52 85" fill="none" xmlns="http://www.w3.org/2000/svg">
<path d="M25.0689 0.829929C22.1347 0.892507 21.2864 4.09094 20.2365 6.70532C19.1866 9.31969 12.9357 23.5388 8.889 30.7145C4.84229 37.8901 -0.636777 47.2907 0.141973 60.7311C0.927676 74.1715 11.3643 84.2048 25.9867 84.0936C39.2046 83.9963 50.7677 76.3756 51.2405 59.8202C51.6299 46.1156 44.0927 34.2745 40.3728 27.0293C38.1617 22.7184 30.9235 8.29063 30.1586 6.50368C28.7888 3.30524 28.2048 0.760397 25.0689 0.829929V0.829929Z" fill="#4EC1F5"/>
<path d="M13.9439 42.792C11.8858 42.8824 6.99078 49.2515 6.99078 57.2823C6.99078 65.3132 10.7802 71.2442 14.9173 70.3959C19.715 69.4156 18.9293 64.5205 17.9489 60.6059C17.1076 57.2406 15.7934 53.2634 15.5014 49.6409C15.3206 47.2977 16.0994 42.6947 13.9439 42.792V42.792Z" fill="#B3E2FB"/>
</svg>
